<svg width="204" height="31" viewBox="0 0 204 31" fill="none" xmlns="http://www.w3.org/2000/svg">
<path d="M49.7822 13.0618H52.107V22.159C52.1028 22.9929 51.9259 23.711 51.5764 24.3132C51.2268 24.9113 50.7383 25.3725 50.1107 25.6968C49.4874 26.0168 48.7609 26.1769 47.9312 26.1769C47.1731 26.1769 46.4908 26.0421 45.8843 25.7726C45.2821 25.4988 44.804 25.0945 44.4503 24.5596C44.0965 24.0247 43.9196 23.3593 43.9196 22.5633H46.2507C46.255 22.9129 46.3308 23.214 46.4782 23.4667C46.6298 23.7194 46.8383 23.9131 47.1036 24.0479C47.3689 24.1827 47.6743 24.2501 48.0196 24.2501C48.3945 24.2501 48.7125 24.1721 48.9736 24.0163C49.2347 23.8563 49.4326 23.6204 49.5674 23.3088C49.7064 22.9971 49.778 22.6138 49.7822 22.159V13.0618ZM58.7815 26.1895C57.8338 26.1895 57.0126 25.981 56.3176 25.5641C55.6227 25.1471 55.0836 24.5638 54.7004 23.8142C54.3213 23.0645 54.1318 22.1885 54.1318 21.1861C54.1318 20.1837 54.3213 19.3056 54.7004 18.5517C55.0836 17.7978 55.6227 17.2124 56.3176 16.7954C57.0126 16.3785 57.8338 16.17 58.7815 16.17C59.7291 16.17 60.5503 16.3785 61.2453 16.7954C61.9402 17.2124 62.4772 17.7978 62.8562 18.5517C63.2395 19.3056 63.4311 20.1837 63.4311 21.1861C63.4311 22.1885 63.2395 23.0645 62.8562 23.8142C62.4772 24.5638 61.9402 25.1471 61.2453 25.5641C60.5503 25.981 59.7291 26.1895 58.7815 26.1895ZM58.7941 24.3575C59.3079 24.3575 59.7375 24.2164 60.0829 23.9342C60.4282 23.6478 60.6851 23.2645 60.8536 22.7844C61.0263 22.3043 61.1126 21.7694 61.1126 21.1798C61.1126 20.5859 61.0263 20.0489 60.8536 19.5688C60.6851 19.0845 60.4282 18.6991 60.0829 18.4127C59.7375 18.1263 59.3079 17.9831 58.7941 17.9831C58.2676 17.9831 57.8296 18.1263 57.4801 18.4127C57.1347 18.6991 56.8757 19.0845 56.703 19.5688C56.5345 20.0489 56.4503 20.5859 56.4503 21.1798C56.4503 21.7694 56.5345 22.3043 56.703 22.7844C56.8757 23.2645 57.1347 23.6478 57.4801 23.9342C57.8296 24.2164 58.2676 24.3575 58.7941 24.3575ZM65.4732 26V13.0618H67.7602V17.901H67.8549C67.9728 17.6651 68.1392 17.4146 68.354 17.1492C68.5688 16.8797 68.8594 16.6501 69.2258 16.4606C69.5922 16.2669 70.0597 16.17 70.6283 16.17C71.378 16.17 72.0539 16.3616 72.6562 16.7449C73.2627 17.124 73.7428 17.6862 74.0966 18.4317C74.4546 19.1729 74.6336 20.0826 74.6336 21.1608C74.6336 22.2264 74.4588 23.1319 74.1092 23.8773C73.7597 24.6228 73.2837 25.1914 72.6815 25.583C72.0792 25.9747 71.3969 26.1706 70.6346 26.1706C70.0787 26.1706 69.6175 26.0779 69.2511 25.8926C68.8847 25.7073 68.5899 25.4841 68.3666 25.223C68.1476 24.9576 67.9771 24.707 67.8549 24.4712H67.7223V26H65.4732ZM67.7159 21.1482C67.7159 21.7757 67.8044 22.3253 67.9813 22.797C68.1624 23.2687 68.4214 23.6373 68.7583 23.9026C69.0995 24.1637 69.5122 24.2943 69.9965 24.2943C70.5019 24.2943 70.9252 24.1595 71.2664 23.89C71.6075 23.6162 71.8644 23.2435 72.0371 22.7718C72.214 22.2959 72.3024 21.7547 72.3024 21.1482C72.3024 20.5459 72.2161 20.011 72.0434 19.5435C71.8707 19.0761 71.6138 18.7096 71.2727 18.4443C70.9315 18.179 70.5062 18.0463 69.9965 18.0463C69.508 18.0463 69.0931 18.1748 68.752 18.4317C68.4109 18.6886 68.1518 19.0487 67.975 19.512C67.8023 19.9752 67.7159 20.5206 67.7159 21.1482ZM80.7852 26.2022C79.9092 26.2022 79.1469 25.9853 78.4983 25.5515C77.8497 25.1177 77.3485 24.5238 76.9947 23.7699C76.6409 23.016 76.4641 22.1569 76.4641 21.1924C76.4641 20.2237 76.6409 19.3603 76.9947 18.6022C77.3527 17.8441 77.8434 17.2461 78.4667 16.8081C79.09 16.3701 79.8018 16.1511 80.602 16.1511C81.1453 16.1511 81.6591 16.2606 82.1435 16.4796C82.632 16.6944 83.0616 17.006 83.4322 17.4146C83.8071 17.8231 84.0998 18.3158 84.3104 18.8928C84.5252 19.4698 84.6325 20.1184 84.6325 20.8386V21.3188H76.9505V20.6175H83.8618C83.8618 19.9142 83.7186 19.2803 83.4322 18.716C83.1458 18.1516 82.7563 17.7031 82.2635 17.3703C81.7707 17.0376 81.2169 16.8713 80.602 16.8713C79.9576 16.8713 79.3827 17.0524 78.8773 17.4146C78.3761 17.7725 77.9781 18.2569 77.6833 18.8676C77.3927 19.4783 77.2411 20.1605 77.2285 20.9144V21.2303C77.2285 22.0389 77.3696 22.7655 77.6517 23.4098C77.9381 24.05 78.3467 24.5575 78.8773 24.9323C79.408 25.303 80.044 25.4883 80.7852 25.4883C81.3159 25.4883 81.7686 25.3998 82.1435 25.223C82.5225 25.0419 82.8321 24.8228 83.0721 24.5659C83.3122 24.309 83.4933 24.0605 83.6154 23.8205L84.3167 24.1048C84.1693 24.4291 83.9397 24.7534 83.6281 25.0776C83.3206 25.3977 82.9289 25.6652 82.453 25.88C81.9813 26.0948 81.4254 26.2022 80.7852 26.2022ZM80.185 14.9128L81.8781 12.1205H82.7942L80.8926 14.9128H80.185ZM90.7163 16.2964V16.985H86.4772V16.2964H90.7163ZM87.9113 13.9715H88.6757V23.7068C88.6757 24.1027 88.7515 24.4269 88.9032 24.6796C89.059 24.9281 89.2611 25.1134 89.5096 25.2356C89.7623 25.3535 90.0319 25.4125 90.3183 25.4125C90.4573 25.4125 90.5773 25.4019 90.6784 25.3809C90.7837 25.3598 90.8826 25.3325 90.9753 25.2988L91.1648 26C91.0469 26.0421 90.9163 26.0779 90.7731 26.1074C90.6299 26.1411 90.4615 26.1579 90.2677 26.1579C89.8634 26.1579 89.4802 26.0674 89.118 25.8863C88.76 25.7052 88.4694 25.442 88.2461 25.0966C88.0229 24.7512 87.9113 24.3343 87.9113 23.8457V13.9715ZM99.7913 22.557V16.2964H100.562V26H99.7913V24.4269H99.7281C99.5007 24.9281 99.1322 25.3367 98.6226 25.6525C98.1172 25.9684 97.5191 26.1263 96.8284 26.1263C96.1925 26.1263 95.6302 25.9874 95.1417 25.7094C94.6531 25.4314 94.2699 25.0376 93.9919 24.528C93.7139 24.0142 93.5749 23.4035 93.5749 22.696V16.2964H94.3457V22.6644C94.3457 23.473 94.5899 24.1279 95.0785 24.6291C95.5712 25.1261 96.2072 25.3746 96.9864 25.3746C97.4918 25.3746 97.9571 25.2609 98.3825 25.0334C98.8079 24.806 99.149 24.4817 99.406 24.0605C99.6629 23.6352 99.7913 23.134 99.7913 22.557ZM107.085 26.2022C106.306 26.2022 105.626 25.9874 105.044 25.5578C104.463 25.1282 104.012 24.5365 103.692 23.7826C103.376 23.0245 103.219 22.1548 103.219 21.1735C103.219 20.2006 103.379 19.3372 103.699 18.5833C104.023 17.8252 104.476 17.2313 105.057 16.8018C105.638 16.368 106.316 16.1511 107.091 16.1511C107.647 16.1511 108.129 16.2585 108.538 16.4733C108.951 16.6838 109.296 16.9639 109.574 17.3135C109.856 17.663 110.071 18.0463 110.218 18.4633H110.294V13.0618H111.059V26H110.313V23.8836H110.218C110.062 24.3006 109.846 24.686 109.568 25.0397C109.29 25.3893 108.944 25.6715 108.532 25.8863C108.119 26.0969 107.637 26.2022 107.085 26.2022ZM107.154 25.4883C107.811 25.4883 108.374 25.3009 108.841 24.926C109.313 24.547 109.673 24.0332 109.921 23.3846C110.174 22.7318 110.3 21.9926 110.3 21.1671C110.3 20.3417 110.174 19.6067 109.921 18.9623C109.673 18.3137 109.313 17.8041 108.841 17.4335C108.374 17.0587 107.811 16.8713 107.154 16.8713C106.489 16.8713 105.918 17.0608 105.442 17.4398C104.971 17.8147 104.608 18.3264 104.356 18.975C104.107 19.6236 103.983 20.3543 103.983 21.1671C103.983 21.98 104.107 22.7128 104.356 23.3656C104.608 24.0184 104.971 24.5365 105.442 24.9197C105.918 25.2988 106.489 25.4883 107.154 25.4883ZM114.565 26V16.2964H115.329V26H114.565ZM114.95 14.578C114.782 14.578 114.634 14.519 114.508 14.4011C114.386 14.2832 114.325 14.14 114.325 13.9715C114.325 13.8031 114.386 13.6599 114.508 13.5419C114.63 13.424 114.777 13.3651 114.95 13.3651C115.119 13.3651 115.264 13.424 115.386 13.5419C115.512 13.6599 115.576 13.8031 115.576 13.9715C115.576 14.14 115.514 14.2832 115.392 14.4011C115.27 14.519 115.123 14.578 114.95 14.578ZM121.129 26.2085C120.568 26.2085 120.055 26.0969 119.587 25.8737C119.124 25.6504 118.751 25.324 118.469 24.8944C118.191 24.4649 118.052 23.9426 118.052 23.3277C118.052 22.9234 118.124 22.5675 118.267 22.2601C118.41 21.9526 118.631 21.6873 118.93 21.4641C119.229 21.2408 119.612 21.0576 120.08 20.9144C120.547 20.767 121.105 20.6533 121.754 20.5733C122.247 20.5143 122.687 20.4575 123.074 20.4027C123.462 20.3438 123.765 20.2532 123.984 20.1311C124.207 20.0089 124.319 19.8236 124.319 19.5751V19.1708C124.319 18.4633 124.096 17.901 123.649 17.484C123.203 17.0671 122.588 16.8586 121.805 16.8586C121.11 16.8586 120.524 17.0123 120.048 17.3198C119.577 17.623 119.246 18.0147 119.056 18.4948L118.33 18.2232C118.515 17.7599 118.783 17.3745 119.132 17.0671C119.486 16.7596 119.89 16.5301 120.345 16.3785C120.804 16.2269 121.284 16.1511 121.786 16.1511C122.219 16.1511 122.632 16.2121 123.024 16.3343C123.42 16.4564 123.771 16.6417 124.079 16.8902C124.391 17.1387 124.637 17.4567 124.818 17.8441C124.999 18.2274 125.09 18.6865 125.09 19.2214V26H124.319V24.2501H124.262C124.094 24.6123 123.862 24.9429 123.567 25.2419C123.277 25.5367 122.925 25.7726 122.512 25.9495C122.104 26.1221 121.642 26.2085 121.129 26.2085ZM121.204 25.4946C121.811 25.4946 122.348 25.3472 122.815 25.0524C123.287 24.7534 123.656 24.3448 123.921 23.8268C124.186 23.3088 124.319 22.7212 124.319 22.0642V20.6365C124.222 20.7207 124.081 20.7965 123.896 20.8639C123.715 20.9271 123.508 20.9839 123.277 21.0345C123.049 21.0808 122.809 21.1229 122.556 21.1608C122.308 21.1945 122.066 21.2261 121.83 21.2556C121.122 21.3398 120.545 21.4704 120.099 21.6473C119.657 21.8199 119.332 22.0474 119.126 22.3295C118.924 22.6117 118.823 22.9529 118.823 23.353C118.823 24.0142 119.05 24.5365 119.505 24.9197C119.96 25.303 120.526 25.4946 121.204 25.4946ZM129.092 19.7078V26H128.321V16.2964H129.073V17.8315H129.149C129.376 17.3303 129.74 16.9281 130.242 16.6249C130.743 16.3216 131.339 16.17 132.029 16.17C132.682 16.17 133.255 16.309 133.748 16.587C134.245 16.8649 134.632 17.2608 134.91 17.7747C135.192 18.2843 135.333 18.8928 135.333 19.6004V26H134.563V19.632C134.563 18.8065 134.316 18.1432 133.824 17.642C133.335 17.1366 132.689 16.8839 131.884 16.8839C131.345 16.8839 130.865 17.0018 130.444 17.2377C130.023 17.4735 129.692 17.8041 129.452 18.2295C129.212 18.6507 129.092 19.1434 129.092 19.7078ZM141.967 16.2964V16.985H137.728V16.2964H141.967ZM139.162 13.9715H139.926V23.7068C139.926 24.1027 140.002 24.4269 140.154 24.6796C140.309 24.9281 140.512 25.1134 140.76 25.2356C141.013 25.3535 141.282 25.4125 141.569 25.4125C141.708 25.4125 141.828 25.4019 141.929 25.3809C142.034 25.3598 142.133 25.3325 142.226 25.2988L142.415 26C142.297 26.0421 142.167 26.0779 142.024 26.1074C141.88 26.1411 141.712 26.1579 141.518 26.1579C141.114 26.1579 140.731 26.0674 140.368 25.8863C140.01 25.7052 139.72 25.442 139.497 25.0966C139.273 24.7512 139.162 24.3343 139.162 23.8457V13.9715ZM148.916 26V13.0618H153.768C154.762 13.0618 155.596 13.2471 156.27 13.6178C156.948 13.9884 157.459 14.498 157.805 15.1466C158.154 15.791 158.329 16.5238 158.329 17.3451C158.329 18.1748 158.154 18.9118 157.805 19.5562C157.455 20.2006 156.939 20.7081 156.257 21.0787C155.575 21.4451 154.734 21.6283 153.736 21.6283H150.521V19.7015H153.42C154.002 19.7015 154.477 19.6004 154.848 19.3982C155.219 19.1961 155.492 18.9181 155.669 18.5643C155.85 18.2106 155.941 17.8041 155.941 17.3451C155.941 16.886 155.85 16.4817 155.669 16.1321C155.492 15.7825 155.217 15.5109 154.842 15.3172C154.471 15.1192 153.993 15.0202 153.408 15.0202H151.26V26H148.916ZM164.357 26.1895C163.41 26.1895 162.589 25.981 161.894 25.5641C161.199 25.1471 160.66 24.5638 160.276 23.8142C159.897 23.0645 159.708 22.1885 159.708 21.1861C159.708 20.1837 159.897 19.3056 160.276 18.5517C160.66 17.7978 161.199 17.2124 161.894 16.7954C162.589 16.3785 163.41 16.17 164.357 16.17C165.305 16.17 166.126 16.3785 166.821 16.7954C167.516 17.2124 168.053 17.7978 168.432 18.5517C168.815 19.3056 169.007 20.1837 169.007 21.1861C169.007 22.1885 168.815 23.0645 168.432 23.8142C168.053 24.5638 167.516 25.1471 166.821 25.5641C166.126 25.981 165.305 26.1895 164.357 26.1895ZM164.37 24.3575C164.884 24.3575 165.314 24.2164 165.659 23.9342C166.004 23.6478 166.261 23.2645 166.43 22.7844C166.602 22.3043 166.689 21.7694 166.689 21.1798C166.689 20.5859 166.602 20.0489 166.43 19.5688C166.261 19.0845 166.004 18.6991 165.659 18.4127C165.314 18.1263 164.884 17.9831 164.37 17.9831C163.844 17.9831 163.406 18.1263 163.056 18.4127C162.711 18.6991 162.452 19.0845 162.279 19.5688C162.111 20.0489 162.026 20.5859 162.026 21.1798C162.026 21.7694 162.111 22.3043 162.279 22.7844C162.452 23.2645 162.711 23.6478 163.056 23.9342C163.406 24.2164 163.844 24.3575 164.37 24.3575ZM170.948 26V16.2964H173.166V17.9136H173.267C173.444 17.3535 173.747 16.9218 174.176 16.6186C174.61 16.3111 175.105 16.1574 175.661 16.1574C175.787 16.1574 175.928 16.1637 176.084 16.1763C176.244 16.1848 176.377 16.1995 176.482 16.2206V18.3243C176.385 18.2906 176.232 18.2611 176.021 18.2358C175.815 18.2063 175.615 18.1916 175.421 18.1916C175.004 18.1916 174.629 18.2822 174.296 18.4633C173.968 18.6401 173.709 18.8865 173.519 19.2024C173.33 19.5183 173.235 19.8826 173.235 20.2953V26H170.948ZM183.368 16.2964V18.0653H177.79V16.2964H183.368ZM179.167 13.9715H181.454V23.0813C181.454 23.3888 181.5 23.6246 181.593 23.7889C181.69 23.9489 181.816 24.0584 181.972 24.1174C182.128 24.1764 182.301 24.2058 182.49 24.2058C182.633 24.2058 182.764 24.1953 182.882 24.1743C183.004 24.1532 183.097 24.1342 183.16 24.1174L183.545 25.9052C183.423 25.9474 183.248 25.9937 183.021 26.0442C182.798 26.0948 182.524 26.1242 182.2 26.1327C181.627 26.1495 181.111 26.0632 180.652 25.8737C180.193 25.6799 179.828 25.3809 179.559 24.9766C179.294 24.5723 179.163 24.0669 179.167 23.4604V13.9715ZM188.073 26.1958C187.458 26.1958 186.905 26.0863 186.412 25.8673C185.923 25.6441 185.536 25.3156 185.249 24.8818C184.967 24.448 184.826 23.9131 184.826 23.2772C184.826 22.7297 184.927 22.2769 185.129 21.9189C185.331 21.5609 185.607 21.2745 185.957 21.0597C186.306 20.8449 186.7 20.6828 187.138 20.5733C187.58 20.4596 188.037 20.3774 188.509 20.3269C189.078 20.2679 189.539 20.2153 189.893 20.169C190.246 20.1184 190.503 20.0426 190.663 19.9415C190.828 19.8363 190.91 19.6741 190.91 19.4551V19.4172C190.91 18.9413 190.769 18.5728 190.487 18.3116C190.204 18.0505 189.798 17.92 189.267 17.92C188.707 17.92 188.263 18.0421 187.934 18.2864C187.61 18.5306 187.391 18.8191 187.277 19.1519L185.142 18.8486C185.31 18.259 185.588 17.7662 185.976 17.3703C186.363 16.9702 186.837 16.6712 187.397 16.4733C187.957 16.2711 188.577 16.17 189.255 16.17C189.722 16.17 190.188 16.2248 190.651 16.3343C191.114 16.4438 191.537 16.6249 191.921 16.8776C192.304 17.1261 192.611 17.4651 192.843 17.8947C193.079 18.3243 193.197 18.8613 193.197 19.5056V26H190.998V24.667H190.922C190.783 24.9366 190.588 25.1893 190.335 25.4251C190.086 25.6568 189.773 25.8442 189.394 25.9874C189.019 26.1263 188.579 26.1958 188.073 26.1958ZM188.667 24.5154C189.126 24.5154 189.524 24.4248 189.861 24.2437C190.198 24.0584 190.457 23.8142 190.638 23.5109C190.823 23.2077 190.916 22.8771 190.916 22.5191V21.3756C190.845 21.4346 190.722 21.4893 190.55 21.5399C190.381 21.5904 190.192 21.6346 189.981 21.6725C189.771 21.7104 189.562 21.7441 189.356 21.7736C189.149 21.8031 188.97 21.8284 188.819 21.8494C188.478 21.8957 188.172 21.9716 187.903 22.0768C187.633 22.1821 187.42 22.3295 187.265 22.5191C187.109 22.7044 187.031 22.9444 187.031 23.2393C187.031 23.6604 187.185 23.9784 187.492 24.1932C187.799 24.408 188.191 24.5154 188.667 24.5154ZM195.496 26V16.2964H197.783V26H195.496ZM196.646 14.9192C196.284 14.9192 195.972 14.7991 195.711 14.5591C195.45 14.3148 195.319 14.0221 195.319 13.6809C195.319 13.3356 195.45 13.0429 195.711 12.8028C195.972 12.5585 196.284 12.4364 196.646 12.4364C197.012 12.4364 197.324 12.5585 197.581 12.8028C197.842 13.0429 197.973 13.3356 197.973 13.6809C197.973 14.0221 197.842 14.3148 197.581 14.5591C197.324 14.7991 197.012 14.9192 196.646 14.9192ZM202.422 13.0618V26H200.135V13.0618H202.422Z" fill="white"/>
<path fill-rule="evenodd" clip-rule="evenodd" d="M9.52018 1.28434V8.71143C9.52018 9.15705 9.15852 9.51872 8.71289 9.51872H1.28581C0.840182 9.51872 0.478516 9.15705 0.478516 8.71143V1.28434C0.478516 0.838717 0.840182 0.477051 1.28581 0.477051H8.71289C9.15852 0.477051 9.52018 0.838717 9.52018 1.28434Z" fill="#1666C5"/>
<path fill-rule="evenodd" clip-rule="evenodd" d="M9.52018 1.28434V8.71143C9.52018 9.15705 9.15852 9.51872 8.71289 9.51872H1.28581C0.840182 9.51872 0.478516 9.15705 0.478516 8.71143V1.28434C0.478516 0.838717 0.840182 0.477051 1.28581 0.477051H8.71289C9.15852 0.477051 9.52018 0.838717 9.52018 1.28434ZM3.70768 3.70622H4.90247V4.36238H4.93024C5.16662 4.05561 5.65681 3.66618 6.45247 3.66618C7.66341 3.66618 8.22852 4.22805 8.22852 5.64372V8.22705H6.93685V6.12809C6.93685 5.20003 6.72502 4.91716 6.05335 4.91716C5.32227 4.91716 4.99935 5.48226 4.99935 6.28955V8.22705H3.70768V3.70622ZM1.77018 8.22705H3.06185V3.70622H1.77018V8.22705ZM3.2782 2.41455C3.2782 2.89053 2.89199 3.27674 2.41602 3.27674C1.94004 3.27674 1.55383 2.89053 1.55383 2.41455C1.55383 1.93857 1.94004 1.55236 2.41602 1.55236C2.89199 1.55236 3.2782 1.93857 3.2782 2.41455Z" fill="white"/>
<path d="M8.57838 0.665283H1.41957C1.0034 0.665283 0.666016 1.00266 0.666016 1.41884V8.57765C0.666016 8.99382 1.0034 9.3312 1.41957 9.3312H8.57838C8.99456 9.3312 9.33194 8.99382 9.33194 8.57765V1.41884C9.33194 1.00266 8.99456 0.665283 8.57838 0.665283Z" fill="#1666C5"/>
<path fill-rule="evenodd" clip-rule="evenodd" d="M0.478516 1.23247C0.478516 0.815265 0.816496 0.477051 1.23394 0.477051H8.76579C9.183 0.477051 9.52121 0.815032 9.52121 1.23247V8.76433C9.52121 9.18154 9.18323 9.51975 8.76579 9.51975H1.23394C0.81673 9.51975 0.478516 9.18177 0.478516 8.76433V1.23247ZM4.05792 3.92458H5.28245V4.53986C5.45897 4.18606 5.91129 3.86806 6.59081 3.86806C7.89334 3.86806 8.20249 4.57226 8.20249 5.86443V8.25754H6.88376V6.15869C6.88376 5.42284 6.70724 5.00782 6.25831 5.00782C5.63568 5.00782 5.37664 5.45525 5.37664 6.15869V8.25754H4.05792V3.92458ZM1.79724 8.20102H3.11597V3.86806H1.79724V8.20102ZM3.30436 2.45514C3.30436 2.92329 2.92475 3.30289 2.45661 3.30289C1.98846 3.30289 1.60885 2.92329 1.60885 2.45514C1.60885 1.98699 1.98846 1.60739 2.45661 1.60739C2.92475 1.60739 3.30436 1.98699 3.30436 2.45514Z" fill="white"/>
<path fill-rule="evenodd" clip-rule="evenodd" d="M13.0587 0.477051H1.50087C0.948682 0.477051 0.478516 0.91428 0.478516 1.4529V13.0631C0.478516 13.6023 0.787224 14.0396 1.33941 14.0396H12.8972C13.4507 14.0396 14.041 13.6023 14.041 13.0631V1.4529C14.041 0.91428 13.6122 0.477051 13.0587 0.477051Z" fill="#1666C5"/>
<path fill-rule="evenodd" clip-rule="evenodd" d="M13.0587 0.477051H1.50087C0.948682 0.477051 0.478516 0.91428 0.478516 1.4529V13.0631C0.478516 13.6023 0.787224 14.0396 1.33941 14.0396H12.8972C13.4507 14.0396 14.041 13.6023 14.041 13.0631V1.4529C14.041 0.91428 13.6122 0.477051 13.0587 0.477051ZM5.64518 5.64372H7.47095V6.57436H7.49097C7.76933 6.07255 8.59147 5.56299 9.60802 5.56299C11.5591 5.56299 12.1035 6.5989 12.1035 8.51768V12.1021H10.166V8.87095C10.166 8.01199 9.82308 7.2583 9.02095 7.2583C8.04704 7.2583 7.58268 7.9177 7.58268 9.00011V12.1021H5.64518V5.64372ZM2.41602 12.1021H4.35352V5.64372H2.41602V12.1021ZM4.5957 3.3833C4.5957 4.05238 4.05385 4.59424 3.38477 4.59424C2.71568 4.59424 2.17383 4.05238 2.17383 3.3833C2.17383 2.71422 2.71568 2.17236 3.38477 2.17236C4.05385 2.17236 4.5957 2.71422 4.5957 3.3833Z" fill="white"/>
<path d="M12.6279 0.759521H1.89095C1.26675 0.759521 0.760742 1.26553 0.760742 1.88973V12.6267C0.760742 13.2509 1.26675 13.7569 1.89095 13.7569H12.6279C13.2521 13.7569 13.7581 13.2509 13.7581 12.6267V1.88973C13.7581 1.26553 13.2521 0.759521 12.6279 0.759521Z" fill="#1666C5"/>
<path fill-rule="evenodd" clip-rule="evenodd" d="M0.478516 1.61005C0.478516 0.984314 0.985429 0.477051 1.61152 0.477051H12.908C13.5338 0.477051 14.041 0.983964 14.041 1.61005V12.9065C14.041 13.5323 13.5341 14.0396 12.908 14.0396H1.61152C0.985779 14.0396 0.478516 13.5326 0.478516 12.9065V1.61005ZM5.847 5.64775H7.68359V6.57057C7.94834 6.03994 8.62675 5.56299 9.64592 5.56299C11.5995 5.56299 12.0632 6.61917 12.0632 8.55719V12.1465H10.0853V8.99854C10.0853 7.89489 9.82053 7.27243 9.14721 7.27243C8.21338 7.27243 7.82487 7.94349 7.82487 8.99854V12.1465H5.847V5.64775ZM2.45638 12.0617H4.43424V5.56299H2.45638V12.0617ZM4.7168 3.44385C4.7168 4.14599 4.14745 4.71533 3.44531 4.71533C2.74317 4.71533 2.17383 4.14599 2.17383 3.44385C2.17383 2.74171 2.74317 2.17236 3.44531 2.17236C4.14745 2.17236 4.7168 2.74171 4.7168 3.44385Z" fill="white"/>
<path fill-rule="evenodd" clip-rule="evenodd" d="M16.8665 0.477051H2.17383C1.23737 0.477051 0.478516 1.2359 0.478516 2.17236V16.8651C0.478516 17.8015 1.23737 18.5604 2.17383 18.5604H16.8665C17.803 18.5604 18.5618 17.8015 18.5618 16.8651V2.17236C18.5618 1.2359 17.803 0.477051 16.8665 0.477051Z" fill="#1666C5"/>
<path fill-rule="evenodd" clip-rule="evenodd" d="M16.8665 0.477051H2.17383C1.23737 0.477051 0.478516 1.2359 0.478516 2.17236V16.8651C0.478516 17.8015 1.23737 18.5604 2.17383 18.5604H16.8665C17.803 18.5604 18.5618 17.8015 18.5618 16.8651V2.17236C18.5618 1.2359 17.803 0.477051 16.8665 0.477051ZM10.0851 8.2432V6.93538H7.58249V15.9771H10.1658V11.6984C10.1658 10.554 10.594 9.43799 11.8773 9.43799C13.0508 9.43799 13.395 10.1419 13.395 11.3755V15.9771H15.9783V10.1484C15.9783 8.06559 14.8752 6.85466 12.7582 6.85466C11.4078 6.85466 10.4558 7.59736 10.0851 8.2432ZM3.06185 15.9771H5.64518V6.93538H3.06185V15.9771ZM4.35352 2.84403C3.52039 2.84403 2.84549 3.51893 2.84549 4.35205C2.84549 5.18518 3.52039 5.86007 4.35352 5.86007C5.18664 5.86007 5.86154 5.18518 5.86154 4.35205C5.86154 3.51893 5.18664 2.84403 4.35352 2.84403Z" fill="white"/>
<path d="M16.6765 0.853516H2.36135C1.52914 0.853516 0.854492 1.52816 0.854492 2.36037V16.6755C0.854492 17.5077 1.52914 18.1824 2.36135 18.1824H16.6765C17.5087 18.1824 18.1834 17.5077 18.1834 16.6755V2.36037C18.1834 1.52816 17.5087 0.853516 16.6765 0.853516Z" fill="#1666C5"/>
<path fill-rule="evenodd" clip-rule="evenodd" d="M0.478516 1.98764C0.478516 1.15336 1.15436 0.477051 1.9891 0.477051H17.0502C17.8845 0.477051 18.5608 1.1529 18.5608 1.98764V17.0488C18.5608 17.883 17.885 18.5594 17.0502 18.5594H1.9891C1.15483 18.5594 0.478516 17.8835 0.478516 17.0488V1.98764ZM7.63609 7.37093H10.0847V8.60128C10.4377 7.89381 11.3422 7.25791 12.701 7.25791C15.3056 7.25791 15.9238 8.66607 15.9238 11.25V16.0354H13.2868V11.8384C13.2868 10.3669 12.9338 9.53704 12.0361 9.53704C10.7911 9.53704 10.2731 10.4317 10.2731 11.8384V16.0354H7.63609V7.37093ZM3.11552 15.9224H5.75252V7.25791H3.11552V15.9224ZM6.12923 4.43255C6.12923 5.36869 5.37015 6.12777 4.43402 6.12777C3.49788 6.12777 2.7388 5.36869 2.7388 4.43255C2.7388 3.49642 3.49788 2.73734 4.43402 2.73734C5.37015 2.73734 6.12923 3.49642 6.12923 4.43255Z" fill="white"/>
<path fill-rule="evenodd" clip-rule="evenodd" d="M2.28685 22.4354H20.6285C21.627 22.4354 22.4368 21.6255 22.4368 20.6271V2.28538C22.4368 1.28693 21.627 0.477051 20.6285 0.477051H2.28685C1.28839 0.477051 0.478516 1.28693 0.478516 2.28538V20.6271C0.478516 21.6255 1.28839 22.4354 2.28685 22.4354Z" fill="#1666C5"/>
<path fill-rule="evenodd" clip-rule="evenodd" d="M2.28685 22.4354H20.6285C21.627 22.4354 22.4368 21.6255 22.4368 20.6271V2.28538C22.4368 1.28693 21.627 0.477051 20.6285 0.477051H2.28685C1.28839 0.477051 0.478516 1.28693 0.478516 2.28538V20.6271C0.478516 21.6255 1.28839 22.4354 2.28685 22.4354ZM8.87435 8.87288H11.9421V10.4171C12.3535 9.59234 13.5515 8.71143 15.1357 8.71143C18.1724 8.71143 19.2077 10.0838 19.2077 13.3433V19.2062H15.9785V14.0292C15.9785 12.3139 15.6433 11.3755 14.3911 11.3755C12.6983 11.3755 12.1035 12.662 12.1035 14.0292V19.2062H8.87435V8.87288ZM3.70768 19.2062H6.93685V8.87288H3.70768V19.2062ZM7.29206 5.3208C7.29206 6.40838 6.40985 7.29059 5.32227 7.29059C4.23468 7.29059 3.35247 6.40838 3.35247 5.3208C3.35247 4.23257 4.23468 3.35101 5.32227 3.35101C6.40985 3.35101 7.29206 4.23257 7.29206 5.3208Z" fill="white"/>
<path d="M20.1482 0.934082H2.76532C1.75476 0.934082 0.935547 1.7533 0.935547 2.76386V20.1467C0.935547 21.1573 1.75476 21.9765 2.76532 21.9765H20.1482C21.1587 21.9765 21.978 21.1573 21.978 20.1467V2.76386C21.978 1.7533 21.1587 0.934082 20.1482 0.934082Z" fill="#1666C5"/>
<path fill-rule="evenodd" clip-rule="evenodd" d="M0.478516 2.31135C0.478516 1.2983 1.29919 0.477051 2.31282 0.477051H20.6015C21.6146 0.477051 22.4358 1.29773 22.4358 2.31135V20.6001C22.4358 21.6131 21.6151 22.4344 20.6015 22.4344H2.31282C1.29976 22.4344 0.478516 21.6137 0.478516 20.6001V2.31135ZM9.16995 8.84827H12.1433V10.3423C12.572 9.4832 13.6703 8.71104 15.3203 8.71104C18.483 8.71104 19.2337 10.421 19.2337 13.5586V19.3695H16.0316V14.2731C16.0316 12.4863 15.603 11.4786 14.5129 11.4786C13.001 11.4786 12.3721 12.565 12.3721 14.2731V19.3695H9.16995V8.84827ZM3.68062 19.2322H6.88273V8.71104H3.68062V19.2322ZM7.34017 5.28021C7.34017 6.41696 6.41842 7.33871 5.28167 7.33871C4.14493 7.33871 3.22318 6.41696 3.22318 5.28021C3.22318 4.14346 4.14493 3.22171 5.28167 3.22171C6.41842 3.22171 7.34017 4.14346 7.34017 5.28021Z" fill="white"/>
<path fill-rule="evenodd" clip-rule="evenodd" d="M26.3118 2.73747V24.05C26.3118 25.299 25.3005 26.3104 24.0514 26.3104H2.73893C1.48989 26.3104 0.478516 25.299 0.478516 24.05V2.73747C0.478516 1.48843 1.48989 0.477051 2.73893 0.477051H24.0514C25.3005 0.477051 26.3118 1.48843 26.3118 2.73747Z" fill="#1666C5"/>
<path fill-rule="evenodd" clip-rule="evenodd" d="M26.3118 2.73747V24.05C26.3118 25.299 25.3005 26.3104 24.0514 26.3104H2.73893C1.48989 26.3104 0.478516 25.299 0.478516 24.05V2.73747C0.478516 1.48843 1.48989 0.477051 2.73893 0.477051H24.0514C25.3005 0.477051 26.3118 1.48843 26.3118 2.73747ZM10.166 10.1646H13.9603V12.3171C14.3911 11.5505 15.3327 9.97081 17.8882 9.97081C21.8795 9.97081 22.4368 12.5412 22.4368 15.9557V22.4354H18.5618V16.6345C18.5618 14.8036 18.2661 13.313 16.574 13.313C14.5254 13.313 14.041 14.657 14.041 16.3103V22.4354H10.166V10.1646ZM4.35352 22.4354H8.22851V10.1646H4.35352V22.4354ZM8.64894 6.28953C8.64894 7.59153 7.59364 8.64683 6.29164 8.64683C4.989 8.64683 3.93371 7.59153 3.93371 6.28953C3.93371 4.98753 4.989 3.93224 6.29164 3.93224C7.59364 3.93224 8.64894 4.98753 8.64894 6.28953Z" fill="white"/>
<path d="M23.6194 1.01489H3.1688C1.97991 1.01489 1.01611 1.97869 1.01611 3.16758V23.6182C1.01611 24.8071 1.97991 25.7708 3.1688 25.7708H23.6194C24.8083 25.7708 25.7721 24.8071 25.7721 23.6182V3.16758C25.7721 1.97869 24.8083 1.01489 23.6194 1.01489Z" fill="#1666C5"/>
<path fill-rule="evenodd" clip-rule="evenodd" d="M0.478516 2.63507C0.478516 1.44323 1.44403 0.477051 2.63653 0.477051H24.1528C25.3446 0.477051 26.3108 1.44256 26.3108 2.63507V24.1513C26.3108 25.3432 25.3453 26.3094 24.1528 26.3094H2.63653C1.44469 26.3094 0.478516 25.3438 0.478516 24.1513V2.63507ZM10.7038 10.3256H14.2019V12.0833C14.7062 11.0726 15.9983 10.1642 17.9395 10.1642C21.6605 10.1642 22.5436 12.1759 22.5436 15.8672V22.7036H18.7764V16.7078C18.7764 14.6057 18.2721 13.4201 16.9897 13.4201C15.211 13.4201 14.471 14.6983 14.471 16.7078V22.7036H10.7038V10.3256ZM4.24573 22.5421H8.01294V10.1642H4.24573V22.5421ZM8.55111 6.12787C8.55111 7.46523 7.46669 8.54965 6.12933 8.54965C4.79197 8.54965 3.70755 7.46523 3.70755 6.12787C3.70755 4.79051 4.79197 3.70609 6.12933 3.70609C7.46669 3.70609 8.55111 4.79051 8.55111 6.12787Z" fill="white"/>
<path d="M28.2471 1.1228H3.7054C2.27867 1.1228 1.12207 2.2794 1.12207 3.70614V28.2478C1.12207 29.6745 2.27867 30.8311 3.7054 30.8311H28.2471C29.6738 30.8311 30.8304 29.6745 30.8304 28.2478V3.70614C30.8304 2.2794 29.6738 1.1228 28.2471 1.1228Z" fill="#1666C5"/>
<path fill-rule="evenodd" clip-rule="evenodd" d="M0 2.58972C0 1.15946 1.15866 0 2.58972 0H28.4103C29.8405 0 31 1.15866 31 2.58972V28.4103C31 29.8405 29.8413 31 28.4103 31H2.58972C1.15946 31 0 29.8413 0 28.4103V2.58972ZM2.38461 26.7077V26.6984L2.87284 26.6979L3.39659 26.6637L3.93412 26.5999L4.464 26.504L5.00769 26.3657L5.72308 26.108L6.37501 25.776L6.95457 25.3739L7.55579 24.8L7.99838 24.2165L8.45473 23.3519L8.76793 22.4154L8.9513 21.4615L9.04166 20.0308V11.625H4.52083L4.52084 16.6923L4.51504 17.8846L4.43137 19.0769L4.37531 19.572L4.29231 20.0308L4.19019 20.3871L4.06029 20.7161L3.93068 20.9602L3.78754 21.1702L3.62268 21.3604L3.40173 21.5568L3.14828 21.7253L3.0059 21.8005L2.86154 21.8654L2.66488 21.9385L2.46338 21.998L2.23939 22.0491L2.02437 22.0857L1.61127 22.1279L1.19231 22.1407L2.0271 25.5154L2.20586 26.1115L2.38461 26.7077ZM9.6875 6.78125C9.6875 8.38615 8.38614 9.6875 6.78125 9.6875C5.17635 9.6875 3.875 8.38615 3.875 6.78125C3.875 5.17635 5.17635 3.875 6.78125 3.875C8.38614 3.875 9.6875 5.17635 9.6875 6.78125Z" fill="white"/>
<rect x="16.0527" y="24.4934" width="11.9867" height="1.65333" rx="0.826667" fill="#1666C5"/>
</svg>
