<svg width="125" height="125" viewBox="0 0 125 125" fill="none" xmlns="http://www.w3.org/2000/svg">
<path fill-rule="evenodd" clip-rule="evenodd" d="M38.3812 5.17855V35.1265C38.3812 36.9233 36.9228 38.3817 35.126 38.3817H5.17806C3.38118 38.3817 1.92285 36.9233 1.92285 35.1265V5.17855C1.92285 3.38167 3.38118 1.92334 5.17806 1.92334H35.126C36.9228 1.92334 38.3812 3.38167 38.3812 5.17855Z" fill="url(#paint0_linear_584_9747)"/>
<path fill-rule="evenodd" clip-rule="evenodd" d="M38.3812 5.17855V35.1265C38.3812 36.9233 36.9228 38.3817 35.126 38.3817H5.17806C3.38118 38.3817 1.92285 36.9233 1.92285 35.1265V5.17855C1.92285 3.38167 3.38118 1.92334 5.17806 1.92334H35.126C36.9228 1.92334 38.3812 3.38167 38.3812 5.17855ZM14.9437 14.9442H19.7614V17.59H19.8734C20.8265 16.353 22.8031 14.7827 26.0114 14.7827C30.8942 14.7827 33.1728 17.0483 33.1728 22.7567V33.1733H27.9645V24.7098C27.9645 20.9676 27.1103 19.827 24.402 19.827C21.4541 19.827 20.152 22.1056 20.152 25.3608V33.1733H14.9437V14.9442ZM7.13118 33.1733H12.3395V14.9442H7.13118V33.1733ZM13.2119 9.73584C13.2119 11.6551 11.6546 13.2124 9.73535 13.2124C7.81608 13.2124 6.25879 11.6551 6.25879 9.73584C6.25879 7.81657 7.81608 6.25928 9.73535 6.25928C11.6546 6.25928 13.2119 7.81657 13.2119 9.73584Z" fill="url(#paint1_linear_584_9747)"/>
<path d="M34.5878 2.68311H5.72165C4.04351 2.68311 2.68311 4.04351 2.68311 5.72165V34.5878C2.68311 36.2659 4.04351 37.6263 5.72165 37.6263H34.5878C36.2659 37.6263 37.6263 36.2659 37.6263 34.5878V5.72165C37.6263 4.04351 36.2659 2.68311 34.5878 2.68311Z" fill="url(#paint2_linear_584_9747)"/>
<path fill-rule="evenodd" clip-rule="evenodd" d="M1.92285 4.9694C1.92285 3.28711 3.28568 1.92334 4.96891 1.92334H35.3393C37.0216 1.92334 38.3853 3.28617 38.3853 4.9694V35.3398C38.3853 37.0221 37.0225 38.3858 35.3393 38.3858H4.96891C3.28662 38.3858 1.92285 37.023 1.92285 35.3398V4.9694ZM16.3559 15.8247H21.2936V18.3056C22.0053 16.879 23.8292 15.5968 26.5692 15.5968C31.8213 15.5968 33.0679 18.4363 33.0679 23.6466V33.2963H27.7505V24.8332C27.7505 21.866 27.0387 20.1926 25.2285 20.1926C22.7179 20.1926 21.6734 21.9967 21.6734 24.8332V33.2963H16.3559V15.8247ZM7.2403 33.0684H12.5577V15.5968H7.2403V33.0684ZM13.3174 9.89951C13.3174 11.7872 11.7867 13.3179 9.89902 13.3179C8.01133 13.3179 6.48066 11.7872 6.48066 9.89951C6.48066 8.01182 8.01133 6.48115 9.89902 6.48115C11.7867 6.48115 13.3174 8.01182 13.3174 9.89951Z" fill="url(#paint3_linear_584_9747)"/>
<path fill-rule="evenodd" clip-rule="evenodd" d="M52.6494 1.92334H6.04525C3.81868 1.92334 1.92285 3.68636 1.92285 5.85824V52.6733C1.92285 54.8478 3.16764 56.6108 5.39421 56.6108H51.9984C54.2301 56.6108 56.6103 54.8478 56.6103 52.6733V5.85824C56.6103 3.68636 54.8812 1.92334 52.6494 1.92334Z" fill="url(#paint4_linear_584_9747)"/>
<path fill-rule="evenodd" clip-rule="evenodd" d="M52.6494 1.92334H6.04525C3.81868 1.92334 1.92285 3.68636 1.92285 5.85824V52.6733C1.92285 54.8478 3.16764 56.6108 5.39421 56.6108H51.9984C54.2301 56.6108 56.6103 54.8478 56.6103 52.6733V5.85824C56.6103 3.68636 54.8812 1.92334 52.6494 1.92334ZM22.7562 22.7567H30.1182V26.5093H30.1989C31.3213 24.4858 34.6364 22.4312 38.7353 22.4312C46.6025 22.4312 48.7978 26.6082 48.7978 34.3452V48.7983H40.9853V35.7697C40.9853 32.3062 39.6025 29.2671 36.3682 29.2671C32.4411 29.2671 30.5687 31.9259 30.5687 36.2905V48.7983H22.7562V22.7567ZM9.73535 48.7983H17.5479V22.7567H9.73535V48.7983ZM18.5244 13.6421C18.5244 16.34 16.3395 18.5249 13.6416 18.5249C10.9437 18.5249 8.75879 16.34 8.75879 13.6421C8.75879 10.9442 10.9437 8.75928 13.6416 8.75928C16.3395 8.75928 18.5244 10.9442 18.5244 13.6421Z" fill="url(#paint5_linear_584_9747)"/>
<path d="M50.9141 3.0625H7.61979C5.10287 3.0625 3.0625 5.10287 3.0625 7.61979V50.9141C3.0625 53.431 5.10287 55.4714 7.61979 55.4714H50.9141C53.431 55.4714 55.4714 53.431 55.4714 50.9141V7.61979C55.4714 5.10287 53.431 3.0625 50.9141 3.0625Z" fill="url(#paint6_linear_584_9747)"/>
<path fill-rule="evenodd" clip-rule="evenodd" d="M1.92285 6.4919C1.92285 3.96876 3.96686 1.92334 6.49141 1.92334H52.0418C54.5649 1.92334 56.6103 3.96735 56.6103 6.4919V52.0423C56.6103 54.5654 54.5663 56.6108 52.0418 56.6108H6.49141C3.96827 56.6108 1.92285 54.5668 1.92285 52.0423V6.4919ZM23.57 22.7729H30.9756V26.494C32.0431 24.3543 34.7786 22.4312 38.8882 22.4312C46.7655 22.4312 48.6351 26.6899 48.6351 34.5046V48.9774H40.6598V36.2842C40.6598 31.834 39.5923 29.3241 36.8773 29.3241C33.1118 29.3241 31.5452 32.0299 31.5452 36.2842V48.9774H23.57V22.7729ZM9.89811 48.6356H17.8734V22.4312H9.89811V48.6356ZM19.0127 13.8862C19.0127 16.7174 16.717 19.0132 13.8857 19.0132C11.0545 19.0132 8.75879 16.7174 8.75879 13.8862C8.75879 11.055 11.0545 8.75928 13.8857 8.75928C16.717 8.75928 19.0127 11.055 19.0127 13.8862Z" fill="url(#paint7_linear_584_9747)"/>
<path fill-rule="evenodd" clip-rule="evenodd" d="M68.0036 1.92334H8.75879C4.98275 1.92334 1.92285 4.98324 1.92285 8.75928V68.0041C1.92285 71.7801 4.98275 74.84 8.75879 74.84H68.0036C71.7796 74.84 74.8395 71.7801 74.8395 68.0041V8.75928C74.8395 4.98324 71.7796 1.92334 68.0036 1.92334Z" fill="url(#paint8_linear_584_9747)"/>
<path fill-rule="evenodd" clip-rule="evenodd" d="M68.0036 1.92334H8.75879C4.98275 1.92334 1.92285 4.98324 1.92285 8.75928V68.0041C1.92285 71.7801 4.98275 74.84 8.75879 74.84H68.0036C71.7796 74.84 74.8395 71.7801 74.8395 68.0041V8.75928C74.8395 4.98324 71.7796 1.92334 68.0036 1.92334ZM40.659 33.2384V27.965H30.5679V64.4233H40.9846V47.1707C40.9846 42.5562 42.7111 38.0562 47.8856 38.0562C52.6174 38.0562 54.0054 40.8947 54.0054 45.8687V64.4233H64.4221V40.9207C64.4221 32.5223 59.9742 27.6395 51.4377 27.6395C45.9924 27.6395 42.1538 30.6343 40.659 33.2384ZM12.3395 64.4233H22.7562V27.965H12.3395V64.4233ZM17.5479 11.4676C14.1885 11.4676 11.4671 14.189 11.4671 17.5483C11.4671 20.9077 14.1885 23.6291 17.5479 23.6291C20.9072 23.6291 23.6286 20.9077 23.6286 17.5483C23.6286 14.189 20.9072 11.4676 17.5479 11.4676Z" fill="url(#paint9_linear_584_9747)"/>
<path d="M67.2403 3.44189H9.51794C6.16223 3.44189 3.44189 6.16223 3.44189 9.51794V67.2403C3.44189 70.596 6.16223 73.3164 9.51794 73.3164H67.2403C70.596 73.3164 73.3164 70.596 73.3164 67.2403V9.51794C73.3164 6.16223 70.596 3.44189 67.2403 3.44189Z" fill="url(#paint10_linear_584_9747)"/>
<path fill-rule="evenodd" clip-rule="evenodd" d="M1.92285 8.01441C1.92285 4.6504 4.64804 1.92334 8.01392 1.92334H68.7443C72.1083 1.92334 74.8354 4.64852 74.8354 8.01441V68.7448C74.8354 72.1088 72.1102 74.8358 68.7443 74.8358H8.01392C4.64992 74.8358 1.92285 72.1107 1.92285 68.7448V8.01441ZM30.784 29.7212H40.6576V34.6823C42.0809 31.8296 45.7281 29.2655 51.2071 29.2655C61.7096 29.2655 64.2023 34.9436 64.2023 45.3625V64.6585H53.5692V47.7352C53.5692 41.8019 52.1459 38.4555 48.5261 38.4555C43.5058 38.4555 41.4171 42.0632 41.4171 47.7352V64.6585H30.784V29.7212ZM12.5559 64.2028H23.189V29.2655H12.5559V64.2028ZM24.708 17.8729C24.708 21.6477 21.6472 24.7085 17.8725 24.7085C14.0977 24.7085 11.0369 21.6477 11.0369 17.8729C11.0369 14.0982 14.0977 11.0374 17.8725 11.0374C21.6472 11.0374 24.708 14.0982 24.708 17.8729Z" fill="url(#paint11_linear_584_9747)"/>
<path fill-rule="evenodd" clip-rule="evenodd" d="M9.21452 90.465H83.1728C87.1989 90.465 90.4645 87.1994 90.4645 83.1733V9.21501C90.4645 5.18896 87.1989 1.92334 83.1728 1.92334H9.21452C5.18848 1.92334 1.92285 5.18896 1.92285 9.21501V83.1733C1.92285 87.1994 5.18848 90.465 9.21452 90.465Z" fill="url(#paint12_linear_584_9747)"/>
<path fill-rule="evenodd" clip-rule="evenodd" d="M9.21452 90.465H83.1728C87.1989 90.465 90.4645 87.1994 90.4645 83.1733V9.21501C90.4645 5.18896 87.1989 1.92334 83.1728 1.92334H9.21452C5.18848 1.92334 1.92285 5.18896 1.92285 9.21501V83.1733C1.92285 87.1994 5.18848 90.465 9.21452 90.465ZM35.777 35.7775H48.1468V42.0041C49.8057 38.6785 54.6364 35.1265 61.0244 35.1265C73.2692 35.1265 77.4437 40.6603 77.4437 53.8035V77.4442H64.4228V56.5692C64.4228 49.6525 63.0713 45.8686 58.0218 45.8686C51.1963 45.8686 48.7978 51.0561 48.7978 56.5692V77.4442H35.777V35.7775ZM14.9437 77.4442H27.9645V35.7775H14.9437V77.4442ZM29.3968 21.4546C29.3968 25.84 25.8395 29.3973 21.4541 29.3973C17.0687 29.3973 13.5114 25.84 13.5114 21.4546C13.5114 17.0666 17.0687 13.5119 21.4541 13.5119C25.8395 13.5119 29.3968 17.0666 29.3968 21.4546Z" fill="url(#paint13_linear_584_9747)"/>
<path d="M81.2374 3.76782H11.1452C7.07039 3.76782 3.76709 7.07112 3.76709 11.1459V81.2381C3.76709 85.313 7.07039 88.6163 11.1452 88.6163H81.2374C85.3122 88.6163 88.6155 85.313 88.6155 81.2381V11.1459C88.6155 7.07112 85.3122 3.76782 81.2374 3.76782Z" fill="url(#paint14_linear_584_9747)"/>
<path fill-rule="evenodd" clip-rule="evenodd" d="M1.92285 9.31971C1.92285 5.23481 5.23204 1.92334 9.31923 1.92334H83.064C87.1489 1.92334 90.4604 5.23253 90.4604 9.31971V83.0645C90.4604 87.1494 87.1512 90.4608 83.064 90.4608H9.31923C5.23432 90.4608 1.92285 87.1517 1.92285 83.0645V9.31971ZM36.9689 35.6783H48.9584V41.7025C50.6867 38.2385 55.1154 35.1249 61.7687 35.1249C74.5218 35.1249 77.5486 42.0198 77.5486 54.6714V78.1025H64.6369V57.5526C64.6369 50.3478 62.9086 46.2843 58.5131 46.2843C52.4169 46.2843 49.8807 50.6651 49.8807 57.5526V78.1025H36.9689V35.6783ZM14.8346 77.5491H27.7463V35.1249H14.8346V77.5491ZM29.5908 21.2909C29.5908 25.8746 25.8741 29.5913 21.2904 29.5913C16.7068 29.5913 12.99 25.8746 12.99 21.2909C12.99 16.7073 16.7068 12.9905 21.2904 12.9905C25.8741 12.9905 29.5908 16.7073 29.5908 21.2909Z" fill="url(#paint15_linear_584_9747)"/>
<path fill-rule="evenodd" clip-rule="evenodd" d="M106.09 11.0379V96.9754C106.09 102.012 102.011 106.09 96.9749 106.09H11.0374C6.00098 106.09 1.92285 102.012 1.92285 96.9754V11.0379C1.92285 6.00146 6.00098 1.92334 11.0374 1.92334H96.9749C102.011 1.92334 106.09 6.00146 106.09 11.0379Z" fill="url(#paint16_linear_584_9747)"/>
<path fill-rule="evenodd" clip-rule="evenodd" d="M106.09 11.0379V96.9754C106.09 102.012 102.011 106.09 96.9749 106.09H11.0374C6.00098 106.09 1.92285 102.012 1.92285 96.9754V11.0379C1.92285 6.00146 6.00098 1.92334 11.0374 1.92334H96.9749C102.011 1.92334 106.09 6.00146 106.09 11.0379ZM40.9853 40.9859H56.2848V49.6656C58.0218 46.5744 61.8187 40.2046 72.1234 40.2046C88.2171 40.2046 90.4645 50.5692 90.4645 64.3374V90.465H74.8395V67.0744C74.8395 59.6916 73.6468 53.6812 66.8239 53.6812C58.5635 53.6812 56.6103 59.1005 56.6103 65.7671V90.465H40.9853V40.9859ZM17.5479 90.465H33.1728V40.9858H17.5479V90.465ZM34.8681 25.3608C34.8681 30.6108 30.6129 34.866 25.3629 34.866C20.1103 34.866 15.8551 30.6108 15.8551 25.3608C15.8551 20.1108 20.1103 15.8556 25.3629 15.8556C30.6129 15.8556 34.8681 20.1108 34.8681 25.3608Z" fill="url(#paint17_linear_584_9747)"/>
<path d="M95.2345 4.09351H12.7725C7.97855 4.09351 4.09229 7.97977 4.09229 12.7737V95.2357C4.09229 100.03 7.97855 103.916 12.7725 103.916H95.2345C100.028 103.916 103.915 100.03 103.915 95.2357V12.7737C103.915 7.97977 100.028 4.09351 95.2345 4.09351Z" fill="url(#paint18_linear_584_9747)"/>
<path fill-rule="evenodd" clip-rule="evenodd" d="M1.92285 10.625C1.92285 5.81921 5.81604 1.92334 10.6245 1.92334H97.3837C102.189 1.92334 106.085 5.81653 106.085 10.625V97.3842C106.085 102.19 102.192 106.086 97.3837 106.086H10.6245C5.81872 106.086 1.92285 102.193 1.92285 97.3842V10.625ZM43.1538 41.6353H57.2592V48.7227C59.2925 44.6473 64.5028 40.9843 72.3302 40.9843C87.3339 40.9843 90.895 49.0959 90.895 63.9803V91.5465H75.7046V67.3699C75.7046 58.8937 73.6713 54.1131 68.5 54.1131C61.328 54.1131 58.3442 59.267 58.3442 67.3699V91.5465H43.1538V41.6353ZM17.1132 90.8955H32.3036V40.9843H17.1132V90.8955ZM34.4736 24.7089C34.4736 30.1015 30.101 34.4741 24.7084 34.4741C19.3158 34.4741 14.9432 30.1015 14.9432 24.7089C14.9432 19.3163 19.3158 14.9437 24.7084 14.9437C30.101 14.9437 34.4736 19.3163 34.4736 24.7089Z" fill="url(#paint19_linear_584_9747)"/>
<path d="M113.902 4.5271H14.944C9.19104 4.5271 4.52734 9.1908 4.52734 14.9438V113.902C4.52734 119.655 9.19104 124.319 14.944 124.319H113.902C119.655 124.319 124.319 119.655 124.319 113.902V14.9438C124.319 9.1908 119.655 4.5271 113.902 4.5271Z" fill="#FFFF00"/>
<path fill-rule="evenodd" clip-rule="evenodd" d="M0 10.4424C0 4.67523 4.67201 0 10.4424 0H114.558C120.325 0 125 4.67201 125 10.4424V114.558C125 120.325 120.328 125 114.558 125H10.4424C4.67523 125 0 120.328 0 114.558V10.4424ZM9.61538 107.692V107.655L11.5841 107.653L13.6959 107.515L15.8634 107.258L18 106.871L20.1923 106.313L23.0769 105.274L25.7057 103.936L28.0426 102.314L30.4669 100L32.2515 97.6471L34.0917 94.1608L35.3546 90.3846L36.0939 86.5385L36.4583 80.7692V46.875H18.2292L18.2292 67.3077L18.2058 72.1154L17.8684 76.9231L17.6424 78.9192L17.3077 80.7692L16.8959 82.2061L16.3721 83.5327L15.8495 84.5171L15.2723 85.3637L14.6076 86.1308L13.7167 86.9225L12.6947 87.6021L12.1206 87.9053L11.5385 88.167L10.7455 88.4615L9.93297 88.7016L9.02981 88.9077L8.16279 89.0551L6.49705 89.2254L4.80769 89.277L8.1738 102.885L8.89459 105.288L9.61538 107.692ZM39.0625 27.3438C39.0625 33.8151 33.8151 39.0625 27.3437 39.0625C20.8724 39.0625 15.625 33.8151 15.625 27.3438C15.625 20.8724 20.8724 15.625 27.3437 15.625C33.8151 15.625 39.0625 20.8724 39.0625 27.3438Z" fill="url(#paint20_linear_584_9747)"/>
<rect x="56.6672" y="79.9998" width="48.3333" height="6.66667" rx="3.33333" fill="#FFFF77"/>
<defs>
<linearGradient id="paint0_linear_584_9747" x1="20.152" y1="1.92334" x2="20.152" y2="38.3817" gradientUnits="userSpaceOnUse">
<stop stop-color="#FF7B72"/>
<stop offset="1" stop-color="#D29922"/>
</linearGradient>
<linearGradient id="paint1_linear_584_9747" x1="20.152" y1="1.92334" x2="20.152" y2="38.3817" gradientUnits="userSpaceOnUse">
<stop stop-color="#FF7B72"/>
<stop offset="1" stop-color="#D29922"/>
</linearGradient>
<linearGradient id="paint2_linear_584_9747" x1="20.1547" y1="2.68311" x2="20.1547" y2="37.6263" gradientUnits="userSpaceOnUse">
<stop stop-color="#FF7B72"/>
<stop offset="1" stop-color="#D29922"/>
</linearGradient>
<linearGradient id="paint3_linear_584_9747" x1="20.1541" y1="1.92334" x2="20.1541" y2="38.3858" gradientUnits="userSpaceOnUse">
<stop stop-color="#FF7B72"/>
<stop offset="1" stop-color="#D29922"/>
</linearGradient>
<linearGradient id="paint4_linear_584_9747" x1="29.2666" y1="1.92334" x2="29.2666" y2="56.6108" gradientUnits="userSpaceOnUse">
<stop stop-color="#FF7B72"/>
<stop offset="1" stop-color="#D29922"/>
</linearGradient>
<linearGradient id="paint5_linear_584_9747" x1="29.2666" y1="1.92334" x2="29.2666" y2="56.6108" gradientUnits="userSpaceOnUse">
<stop stop-color="#FF7B72"/>
<stop offset="1" stop-color="#D29922"/>
</linearGradient>
<linearGradient id="paint6_linear_584_9747" x1="29.2669" y1="3.0625" x2="29.2669" y2="55.4714" gradientUnits="userSpaceOnUse">
<stop stop-color="#FF7B72"/>
<stop offset="1" stop-color="#D29922"/>
</linearGradient>
<linearGradient id="paint7_linear_584_9747" x1="29.2666" y1="1.92334" x2="29.2666" y2="56.6108" gradientUnits="userSpaceOnUse">
<stop stop-color="#FF7B72"/>
<stop offset="1" stop-color="#D29922"/>
</linearGradient>
<linearGradient id="paint8_linear_584_9747" x1="38.3812" y1="1.92334" x2="38.3812" y2="74.84" gradientUnits="userSpaceOnUse">
<stop stop-color="#FF7B72"/>
<stop offset="1" stop-color="#D29922"/>
</linearGradient>
<linearGradient id="paint9_linear_584_9747" x1="38.3812" y1="1.92334" x2="38.3812" y2="74.84" gradientUnits="userSpaceOnUse">
<stop stop-color="#FF7B72"/>
<stop offset="1" stop-color="#D29922"/>
</linearGradient>
<linearGradient id="paint10_linear_584_9747" x1="38.3791" y1="3.44189" x2="38.3791" y2="73.3164" gradientUnits="userSpaceOnUse">
<stop stop-color="#FF7B72"/>
<stop offset="1" stop-color="#D29922"/>
</linearGradient>
<linearGradient id="paint11_linear_584_9747" x1="38.3791" y1="1.92334" x2="38.3791" y2="74.8358" gradientUnits="userSpaceOnUse">
<stop stop-color="#FF7B72"/>
<stop offset="1" stop-color="#D29922"/>
</linearGradient>
<linearGradient id="paint12_linear_584_9747" x1="46.1937" y1="1.92334" x2="46.1937" y2="90.465" gradientUnits="userSpaceOnUse">
<stop stop-color="#FF7B72"/>
<stop offset="1" stop-color="#D29922"/>
</linearGradient>
<linearGradient id="paint13_linear_584_9747" x1="46.1937" y1="1.92334" x2="46.1937" y2="90.465" gradientUnits="userSpaceOnUse">
<stop stop-color="#FF7B72"/>
<stop offset="1" stop-color="#D29922"/>
</linearGradient>
<linearGradient id="paint14_linear_584_9747" x1="46.1913" y1="3.76782" x2="46.1913" y2="88.6163" gradientUnits="userSpaceOnUse">
<stop stop-color="#FF7B72"/>
<stop offset="1" stop-color="#D29922"/>
</linearGradient>
<linearGradient id="paint15_linear_584_9747" x1="46.1916" y1="1.92334" x2="46.1916" y2="90.4608" gradientUnits="userSpaceOnUse">
<stop stop-color="#FF7B72"/>
<stop offset="1" stop-color="#D29922"/>
</linearGradient>
<linearGradient id="paint16_linear_584_9747" x1="54.0062" y1="1.92334" x2="54.0062" y2="106.09" gradientUnits="userSpaceOnUse">
<stop stop-color="#FF7B72"/>
<stop offset="1" stop-color="#D29922"/>
</linearGradient>
<linearGradient id="paint17_linear_584_9747" x1="54.0062" y1="1.92334" x2="54.0062" y2="106.09" gradientUnits="userSpaceOnUse">
<stop stop-color="#FF7B72"/>
<stop offset="1" stop-color="#D29922"/>
</linearGradient>
<linearGradient id="paint18_linear_584_9747" x1="54.0035" y1="4.09351" x2="54.0035" y2="103.916" gradientUnits="userSpaceOnUse">
<stop stop-color="#FF7B72"/>
<stop offset="1" stop-color="#D29922"/>
</linearGradient>
<linearGradient id="paint19_linear_584_9747" x1="54.0041" y1="1.92334" x2="54.0041" y2="106.086" gradientUnits="userSpaceOnUse">
<stop stop-color="#FF7B72"/>
<stop offset="1" stop-color="#D29922"/>
</linearGradient>
<linearGradient id="paint20_linear_584_9747" x1="62.5" y1="0" x2="62.5" y2="125" gradientUnits="userSpaceOnUse">
<stop stop-color="#FF7B72"/>
<stop offset="1" stop-color="#D29922"/>
</linearGradient>
</defs>
</svg>
