<svg width="31" height="31" viewBox="0 0 31 31" fill="none" xmlns="http://www.w3.org/2000/svg">
<path fill-rule="evenodd" clip-rule="evenodd" d="M9.52018 1.28434V8.71143C9.52018 9.15705 9.15852 9.51872 8.71289 9.51872H1.28581C0.840182 9.51872 0.478516 9.15705 0.478516 8.71143V1.28434C0.478516 0.838717 0.840182 0.477051 1.28581 0.477051H8.71289C9.15852 0.477051 9.52018 0.838717 9.52018 1.28434Z" fill="#1666C5"/>
<path fill-rule="evenodd" clip-rule="evenodd" d="M9.52018 1.28434V8.71143C9.52018 9.15705 9.15852 9.51872 8.71289 9.51872H1.28581C0.840182 9.51872 0.478516 9.15705 0.478516 8.71143V1.28434C0.478516 0.838717 0.840182 0.477051 1.28581 0.477051H8.71289C9.15852 0.477051 9.52018 0.838717 9.52018 1.28434ZM3.70768 3.70622H4.90247V4.36238H4.93024C5.16662 4.05561 5.65681 3.66618 6.45247 3.66618C7.66341 3.66618 8.22852 4.22805 8.22852 5.64372V8.22705H6.93685V6.12809C6.93685 5.20003 6.72502 4.91716 6.05335 4.91716C5.32227 4.91716 4.99935 5.48226 4.99935 6.28955V8.22705H3.70768V3.70622ZM1.77018 8.22705H3.06185V3.70622H1.77018V8.22705ZM3.2782 2.41455C3.2782 2.89053 2.89199 3.27674 2.41602 3.27674C1.94004 3.27674 1.55383 2.89053 1.55383 2.41455C1.55383 1.93857 1.94004 1.55236 2.41602 1.55236C2.89199 1.55236 3.2782 1.93857 3.2782 2.41455Z" fill="white"/>
<path d="M8.57838 0.665283H1.41957C1.0034 0.665283 0.666016 1.00266 0.666016 1.41884V8.57765C0.666016 8.99382 1.0034 9.3312 1.41957 9.3312H8.57838C8.99456 9.3312 9.33194 8.99382 9.33194 8.57765V1.41884C9.33194 1.00266 8.99456 0.665283 8.57838 0.665283Z" fill="#1666C5"/>
<path fill-rule="evenodd" clip-rule="evenodd" d="M0.478516 1.23247C0.478516 0.815265 0.816496 0.477051 1.23394 0.477051H8.76579C9.183 0.477051 9.52121 0.815032 9.52121 1.23247V8.76433C9.52121 9.18154 9.18323 9.51975 8.76579 9.51975H1.23394C0.81673 9.51975 0.478516 9.18177 0.478516 8.76433V1.23247ZM4.05792 3.92458H5.28245V4.53986C5.45897 4.18606 5.91129 3.86806 6.59081 3.86806C7.89334 3.86806 8.20249 4.57226 8.20249 5.86443V8.25754H6.88376V6.15869C6.88376 5.42284 6.70724 5.00782 6.25831 5.00782C5.63568 5.00782 5.37664 5.45525 5.37664 6.15869V8.25754H4.05792V3.92458ZM1.79724 8.20102H3.11597V3.86806H1.79724V8.20102ZM3.30436 2.45514C3.30436 2.92329 2.92475 3.30289 2.45661 3.30289C1.98846 3.30289 1.60885 2.92329 1.60885 2.45514C1.60885 1.98699 1.98846 1.60739 2.45661 1.60739C2.92475 1.60739 3.30436 1.98699 3.30436 2.45514Z" fill="white"/>
<path fill-rule="evenodd" clip-rule="evenodd" d="M13.0587 0.477051H1.50087C0.948682 0.477051 0.478516 0.91428 0.478516 1.4529V13.0631C0.478516 13.6023 0.787224 14.0396 1.33941 14.0396H12.8972C13.4507 14.0396 14.041 13.6023 14.041 13.0631V1.4529C14.041 0.91428 13.6122 0.477051 13.0587 0.477051Z" fill="#1666C5"/>
<path fill-rule="evenodd" clip-rule="evenodd" d="M13.0587 0.477051H1.50087C0.948682 0.477051 0.478516 0.91428 0.478516 1.4529V13.0631C0.478516 13.6023 0.787224 14.0396 1.33941 14.0396H12.8972C13.4507 14.0396 14.041 13.6023 14.041 13.0631V1.4529C14.041 0.91428 13.6122 0.477051 13.0587 0.477051ZM5.64518 5.64372H7.47095V6.57436H7.49097C7.76933 6.07255 8.59147 5.56299 9.60802 5.56299C11.5591 5.56299 12.1035 6.5989 12.1035 8.51768V12.1021H10.166V8.87095C10.166 8.01199 9.82308 7.2583 9.02095 7.2583C8.04704 7.2583 7.58268 7.9177 7.58268 9.00011V12.1021H5.64518V5.64372ZM2.41602 12.1021H4.35352V5.64372H2.41602V12.1021ZM4.5957 3.3833C4.5957 4.05238 4.05385 4.59424 3.38477 4.59424C2.71568 4.59424 2.17383 4.05238 2.17383 3.3833C2.17383 2.71422 2.71568 2.17236 3.38477 2.17236C4.05385 2.17236 4.5957 2.71422 4.5957 3.3833Z" fill="white"/>
<path d="M12.6279 0.759521H1.89095C1.26675 0.759521 0.760742 1.26553 0.760742 1.88973V12.6267C0.760742 13.2509 1.26675 13.7569 1.89095 13.7569H12.6279C13.2521 13.7569 13.7581 13.2509 13.7581 12.6267V1.88973C13.7581 1.26553 13.2521 0.759521 12.6279 0.759521Z" fill="#1666C5"/>
<path fill-rule="evenodd" clip-rule="evenodd" d="M0.478516 1.61005C0.478516 0.984314 0.985429 0.477051 1.61152 0.477051H12.908C13.5338 0.477051 14.041 0.983964 14.041 1.61005V12.9065C14.041 13.5323 13.5341 14.0396 12.908 14.0396H1.61152C0.985779 14.0396 0.478516 13.5326 0.478516 12.9065V1.61005ZM5.847 5.64775H7.68359V6.57057C7.94834 6.03994 8.62675 5.56299 9.64592 5.56299C11.5995 5.56299 12.0632 6.61917 12.0632 8.55719V12.1465H10.0853V8.99854C10.0853 7.89489 9.82053 7.27243 9.14721 7.27243C8.21338 7.27243 7.82487 7.94349 7.82487 8.99854V12.1465H5.847V5.64775ZM2.45638 12.0617H4.43424V5.56299H2.45638V12.0617ZM4.7168 3.44385C4.7168 4.14599 4.14745 4.71533 3.44531 4.71533C2.74317 4.71533 2.17383 4.14599 2.17383 3.44385C2.17383 2.74171 2.74317 2.17236 3.44531 2.17236C4.14745 2.17236 4.7168 2.74171 4.7168 3.44385Z" fill="white"/>
<path fill-rule="evenodd" clip-rule="evenodd" d="M16.8665 0.477051H2.17383C1.23737 0.477051 0.478516 1.2359 0.478516 2.17236V16.8651C0.478516 17.8015 1.23737 18.5604 2.17383 18.5604H16.8665C17.803 18.5604 18.5618 17.8015 18.5618 16.8651V2.17236C18.5618 1.2359 17.803 0.477051 16.8665 0.477051Z" fill="#1666C5"/>
<path fill-rule="evenodd" clip-rule="evenodd" d="M16.8665 0.477051H2.17383C1.23737 0.477051 0.478516 1.2359 0.478516 2.17236V16.8651C0.478516 17.8015 1.23737 18.5604 2.17383 18.5604H16.8665C17.803 18.5604 18.5618 17.8015 18.5618 16.8651V2.17236C18.5618 1.2359 17.803 0.477051 16.8665 0.477051ZM10.0851 8.2432V6.93538H7.58249V15.9771H10.1658V11.6984C10.1658 10.554 10.594 9.43799 11.8773 9.43799C13.0508 9.43799 13.395 10.1419 13.395 11.3755V15.9771H15.9783V10.1484C15.9783 8.06559 14.8752 6.85466 12.7582 6.85466C11.4078 6.85466 10.4558 7.59736 10.0851 8.2432ZM3.06185 15.9771H5.64518V6.93538H3.06185V15.9771ZM4.35352 2.84403C3.52039 2.84403 2.84549 3.51893 2.84549 4.35205C2.84549 5.18518 3.52039 5.86007 4.35352 5.86007C5.18664 5.86007 5.86154 5.18518 5.86154 4.35205C5.86154 3.51893 5.18664 2.84403 4.35352 2.84403Z" fill="white"/>
<path d="M16.6765 0.853516H2.36135C1.52914 0.853516 0.854492 1.52816 0.854492 2.36037V16.6755C0.854492 17.5077 1.52914 18.1824 2.36135 18.1824H16.6765C17.5087 18.1824 18.1834 17.5077 18.1834 16.6755V2.36037C18.1834 1.52816 17.5087 0.853516 16.6765 0.853516Z" fill="#1666C5"/>
<path fill-rule="evenodd" clip-rule="evenodd" d="M0.478516 1.98764C0.478516 1.15336 1.15436 0.477051 1.9891 0.477051H17.0502C17.8845 0.477051 18.5608 1.1529 18.5608 1.98764V17.0488C18.5608 17.883 17.885 18.5594 17.0502 18.5594H1.9891C1.15483 18.5594 0.478516 17.8835 0.478516 17.0488V1.98764ZM7.63609 7.37093H10.0847V8.60128C10.4377 7.89381 11.3422 7.25791 12.701 7.25791C15.3056 7.25791 15.9238 8.66607 15.9238 11.25V16.0354H13.2868V11.8384C13.2868 10.3669 12.9338 9.53704 12.0361 9.53704C10.7911 9.53704 10.2731 10.4317 10.2731 11.8384V16.0354H7.63609V7.37093ZM3.11552 15.9224H5.75252V7.25791H3.11552V15.9224ZM6.12923 4.43255C6.12923 5.36869 5.37015 6.12777 4.43402 6.12777C3.49788 6.12777 2.7388 5.36869 2.7388 4.43255C2.7388 3.49642 3.49788 2.73734 4.43402 2.73734C5.37015 2.73734 6.12923 3.49642 6.12923 4.43255Z" fill="white"/>
<path fill-rule="evenodd" clip-rule="evenodd" d="M2.28685 22.4354H20.6285C21.627 22.4354 22.4368 21.6255 22.4368 20.6271V2.28538C22.4368 1.28693 21.627 0.477051 20.6285 0.477051H2.28685C1.28839 0.477051 0.478516 1.28693 0.478516 2.28538V20.6271C0.478516 21.6255 1.28839 22.4354 2.28685 22.4354Z" fill="#1666C5"/>
<path fill-rule="evenodd" clip-rule="evenodd" d="M2.28685 22.4354H20.6285C21.627 22.4354 22.4368 21.6255 22.4368 20.6271V2.28538C22.4368 1.28693 21.627 0.477051 20.6285 0.477051H2.28685C1.28839 0.477051 0.478516 1.28693 0.478516 2.28538V20.6271C0.478516 21.6255 1.28839 22.4354 2.28685 22.4354ZM8.87435 8.87288H11.9421V10.4171C12.3535 9.59234 13.5515 8.71143 15.1357 8.71143C18.1724 8.71143 19.2077 10.0838 19.2077 13.3433V19.2062H15.9785V14.0292C15.9785 12.3139 15.6433 11.3755 14.3911 11.3755C12.6983 11.3755 12.1035 12.662 12.1035 14.0292V19.2062H8.87435V8.87288ZM3.70768 19.2062H6.93685V8.87288H3.70768V19.2062ZM7.29206 5.3208C7.29206 6.40838 6.40985 7.29059 5.32227 7.29059C4.23468 7.29059 3.35247 6.40838 3.35247 5.3208C3.35247 4.23257 4.23468 3.35101 5.32227 3.35101C6.40985 3.35101 7.29206 4.23257 7.29206 5.3208Z" fill="white"/>
<path d="M20.1482 0.934082H2.76532C1.75476 0.934082 0.935547 1.7533 0.935547 2.76386V20.1467C0.935547 21.1573 1.75476 21.9765 2.76532 21.9765H20.1482C21.1587 21.9765 21.978 21.1573 21.978 20.1467V2.76386C21.978 1.7533 21.1587 0.934082 20.1482 0.934082Z" fill="#1666C5"/>
<path fill-rule="evenodd" clip-rule="evenodd" d="M0.478516 2.31135C0.478516 1.2983 1.29919 0.477051 2.31282 0.477051H20.6015C21.6146 0.477051 22.4358 1.29773 22.4358 2.31135V20.6001C22.4358 21.6131 21.6151 22.4344 20.6015 22.4344H2.31282C1.29976 22.4344 0.478516 21.6137 0.478516 20.6001V2.31135ZM9.16995 8.84827H12.1433V10.3423C12.572 9.4832 13.6703 8.71104 15.3203 8.71104C18.483 8.71104 19.2337 10.421 19.2337 13.5586V19.3695H16.0316V14.2731C16.0316 12.4863 15.603 11.4786 14.5129 11.4786C13.001 11.4786 12.3721 12.565 12.3721 14.2731V19.3695H9.16995V8.84827ZM3.68062 19.2322H6.88273V8.71104H3.68062V19.2322ZM7.34017 5.28021C7.34017 6.41696 6.41842 7.33871 5.28167 7.33871C4.14493 7.33871 3.22318 6.41696 3.22318 5.28021C3.22318 4.14346 4.14493 3.22171 5.28167 3.22171C6.41842 3.22171 7.34017 4.14346 7.34017 5.28021Z" fill="white"/>
<path fill-rule="evenodd" clip-rule="evenodd" d="M26.3118 2.73747V24.05C26.3118 25.299 25.3005 26.3104 24.0514 26.3104H2.73893C1.48989 26.3104 0.478516 25.299 0.478516 24.05V2.73747C0.478516 1.48843 1.48989 0.477051 2.73893 0.477051H24.0514C25.3005 0.477051 26.3118 1.48843 26.3118 2.73747Z" fill="#1666C5"/>
<path fill-rule="evenodd" clip-rule="evenodd" d="M26.3118 2.73747V24.05C26.3118 25.299 25.3005 26.3104 24.0514 26.3104H2.73893C1.48989 26.3104 0.478516 25.299 0.478516 24.05V2.73747C0.478516 1.48843 1.48989 0.477051 2.73893 0.477051H24.0514C25.3005 0.477051 26.3118 1.48843 26.3118 2.73747ZM10.166 10.1646H13.9603V12.3171C14.3911 11.5505 15.3327 9.97081 17.8882 9.97081C21.8795 9.97081 22.4368 12.5412 22.4368 15.9557V22.4354H18.5618V16.6345C18.5618 14.8036 18.2661 13.313 16.574 13.313C14.5254 13.313 14.041 14.657 14.041 16.3103V22.4354H10.166V10.1646ZM4.35352 22.4354H8.22851V10.1646H4.35352V22.4354ZM8.64894 6.28953C8.64894 7.59153 7.59364 8.64683 6.29164 8.64683C4.989 8.64683 3.93371 7.59153 3.93371 6.28953C3.93371 4.98753 4.989 3.93224 6.29164 3.93224C7.59364 3.93224 8.64894 4.98753 8.64894 6.28953Z" fill="white"/>
<path d="M23.6194 1.01489H3.1688C1.97991 1.01489 1.01611 1.97869 1.01611 3.16758V23.6182C1.01611 24.8071 1.97991 25.7708 3.1688 25.7708H23.6194C24.8083 25.7708 25.7721 24.8071 25.7721 23.6182V3.16758C25.7721 1.97869 24.8083 1.01489 23.6194 1.01489Z" fill="#1666C5"/>
<path fill-rule="evenodd" clip-rule="evenodd" d="M0.478516 2.63507C0.478516 1.44323 1.44403 0.477051 2.63653 0.477051H24.1528C25.3446 0.477051 26.3108 1.44256 26.3108 2.63507V24.1513C26.3108 25.3432 25.3453 26.3094 24.1528 26.3094H2.63653C1.44469 26.3094 0.478516 25.3438 0.478516 24.1513V2.63507ZM10.7038 10.3256H14.2019V12.0833C14.7062 11.0726 15.9983 10.1642 17.9395 10.1642C21.6605 10.1642 22.5436 12.1759 22.5436 15.8672V22.7036H18.7764V16.7078C18.7764 14.6057 18.2721 13.4201 16.9897 13.4201C15.211 13.4201 14.471 14.6983 14.471 16.7078V22.7036H10.7038V10.3256ZM4.24573 22.5421H8.01294V10.1642H4.24573V22.5421ZM8.55111 6.12787C8.55111 7.46523 7.46669 8.54965 6.12933 8.54965C4.79197 8.54965 3.70755 7.46523 3.70755 6.12787C3.70755 4.79051 4.79197 3.70609 6.12933 3.70609C7.46669 3.70609 8.55111 4.79051 8.55111 6.12787Z" fill="white"/>
<path d="M28.2471 1.1228H3.7054C2.27867 1.1228 1.12207 2.2794 1.12207 3.70614V28.2478C1.12207 29.6745 2.27867 30.8311 3.7054 30.8311H28.2471C29.6738 30.8311 30.8304 29.6745 30.8304 28.2478V3.70614C30.8304 2.2794 29.6738 1.1228 28.2471 1.1228Z" fill="#1666C5"/>
<path fill-rule="evenodd" clip-rule="evenodd" d="M0 2.58972C0 1.15946 1.15866 0 2.58972 0H28.4103C29.8405 0 31 1.15866 31 2.58972V28.4103C31 29.8405 29.8413 31 28.4103 31H2.58972C1.15946 31 0 29.8413 0 28.4103V2.58972ZM2.38461 26.7077V26.6984L2.87284 26.6979L3.39659 26.6637L3.93412 26.5999L4.464 26.504L5.00769 26.3657L5.72308 26.108L6.37501 25.776L6.95457 25.3739L7.55579 24.8L7.99838 24.2165L8.45473 23.3519L8.76793 22.4154L8.9513 21.4615L9.04166 20.0308V11.625H4.52083L4.52084 16.6923L4.51504 17.8846L4.43137 19.0769L4.37531 19.572L4.29231 20.0308L4.19019 20.3871L4.06029 20.7161L3.93068 20.9602L3.78754 21.1702L3.62268 21.3604L3.40173 21.5568L3.14828 21.7253L3.0059 21.8005L2.86154 21.8654L2.66488 21.9385L2.46338 21.998L2.23939 22.0491L2.02437 22.0857L1.61127 22.1279L1.19231 22.1407L2.0271 25.5154L2.20586 26.1115L2.38461 26.7077ZM9.6875 6.78125C9.6875 8.38615 8.38614 9.6875 6.78125 9.6875C5.17635 9.6875 3.875 8.38615 3.875 6.78125C3.875 5.17635 5.17635 3.875 6.78125 3.875C8.38614 3.875 9.6875 5.17635 9.6875 6.78125Z" fill="white"/>
<rect x="12" y="20" width="11.9867" height="1.65333" rx="0.826667" fill="#1666C5"/>
</svg>
