<svg width="168" height="40" viewBox="0 0 168 40" fill="none" xmlns="http://www.w3.org/2000/svg">
<path d="M48.0215 25.2441V15.3906H50.9414V25.2441C50.9414 26.1947 50.7331 27.0117 50.3164 27.6953C49.8997 28.3724 49.3301 28.8932 48.6074 29.2578C47.8913 29.6224 47.084 29.8047 46.1855 29.8047C45.2546 29.8047 44.431 29.6484 43.7148 29.3359C42.9987 29.0234 42.4355 28.5449 42.0254 27.9004C41.6152 27.2493 41.4102 26.4258 41.4102 25.4297H44.3496C44.3496 25.9505 44.4212 26.3639 44.5645 26.6699C44.7142 26.9759 44.9258 27.194 45.1992 27.3242C45.4727 27.4544 45.8014 27.5195 46.1855 27.5195C46.5566 27.5195 46.8789 27.4316 47.1523 27.2559C47.4258 27.0801 47.6374 26.8229 47.7871 26.4844C47.9434 26.1458 48.0215 25.7324 48.0215 25.2441ZM52.8164 24.4336V24.2285C52.8164 23.4538 52.9271 22.7409 53.1484 22.0898C53.3698 21.4323 53.6921 20.8626 54.1152 20.3809C54.5384 19.8991 55.0592 19.5247 55.6777 19.2578C56.2962 18.9844 57.0059 18.8477 57.8066 18.8477C58.6074 18.8477 59.3203 18.9844 59.9453 19.2578C60.5703 19.5247 61.0944 19.8991 61.5176 20.3809C61.9473 20.8626 62.2728 21.4323 62.4941 22.0898C62.7155 22.7409 62.8262 23.4538 62.8262 24.2285V24.4336C62.8262 25.2018 62.7155 25.9147 62.4941 26.5723C62.2728 27.2233 61.9473 27.793 61.5176 28.2812C61.0944 28.763 60.5736 29.1374 59.9551 29.4043C59.3366 29.6712 58.627 29.8047 57.8262 29.8047C57.0254 29.8047 56.3125 29.6712 55.6875 29.4043C55.069 29.1374 54.5449 28.763 54.1152 28.2812C53.6921 27.793 53.3698 27.2233 53.1484 26.5723C52.9271 25.9147 52.8164 25.2018 52.8164 24.4336ZM55.6289 24.2285V24.4336C55.6289 24.8763 55.668 25.2897 55.7461 25.6738C55.8242 26.0579 55.9479 26.3965 56.1172 26.6895C56.293 26.9759 56.5208 27.2005 56.8008 27.3633C57.0807 27.526 57.4225 27.6074 57.8262 27.6074C58.2168 27.6074 58.5521 27.526 58.832 27.3633C59.112 27.2005 59.3366 26.9759 59.5059 26.6895C59.6751 26.3965 59.7988 26.0579 59.877 25.6738C59.9616 25.2897 60.0039 24.8763 60.0039 24.4336V24.2285C60.0039 23.7988 59.9616 23.3952 59.877 23.0176C59.7988 22.6335 59.6719 22.2949 59.4961 22.002C59.3268 21.7025 59.1022 21.4681 58.8223 21.2988C58.5423 21.1296 58.2038 21.0449 57.8066 21.0449C57.4095 21.0449 57.071 21.1296 56.791 21.2988C56.5176 21.4681 56.293 21.7025 56.1172 22.002C55.9479 22.2949 55.8242 22.6335 55.7461 23.0176C55.668 23.3952 55.6289 23.7988 55.6289 24.2285ZM64.5547 14.6094H67.3672V27.1875L67.084 29.6094H64.5547V14.6094ZM74.0566 24.2188V24.4238C74.0566 25.2116 73.972 25.9342 73.8027 26.5918C73.64 27.2493 73.3861 27.819 73.041 28.3008C72.696 28.776 72.2663 29.1471 71.752 29.4141C71.2441 29.6745 70.6452 29.8047 69.9551 29.8047C69.3105 29.8047 68.7507 29.6745 68.2754 29.4141C67.8066 29.1536 67.4128 28.7858 67.0938 28.3105C66.7747 27.8353 66.5176 27.2786 66.3223 26.6406C66.127 26.0026 65.9805 25.306 65.8828 24.5508V24.1016C65.9805 23.3464 66.127 22.6497 66.3223 22.0117C66.5176 21.3737 66.7747 20.8171 67.0938 20.3418C67.4128 19.8665 67.8066 19.4987 68.2754 19.2383C68.7441 18.9779 69.2975 18.8477 69.9355 18.8477C70.6322 18.8477 71.2376 18.9811 71.752 19.248C72.2728 19.5085 72.7025 19.8796 73.041 20.3613C73.3861 20.8366 73.64 21.403 73.8027 22.0605C73.972 22.7116 74.0566 23.431 74.0566 24.2188ZM71.2441 24.4238V24.2188C71.2441 23.7891 71.2116 23.3854 71.1465 23.0078C71.0879 22.6237 70.9837 22.2884 70.834 22.002C70.6842 21.709 70.4792 21.4779 70.2188 21.3086C69.9648 21.1393 69.6361 21.0547 69.2324 21.0547C68.8483 21.0547 68.5228 21.1198 68.2559 21.25C67.9889 21.3802 67.7676 21.5625 67.5918 21.7969C67.4225 22.0312 67.2956 22.3112 67.2109 22.6367C67.1263 22.9557 67.0742 23.3073 67.0547 23.6914V24.9707C67.0742 25.485 67.1589 25.9408 67.3086 26.3379C67.4648 26.7285 67.6992 27.0378 68.0117 27.2656C68.3307 27.487 68.7441 27.5977 69.252 27.5977C69.6491 27.5977 69.9779 27.5195 70.2383 27.3633C70.4987 27.207 70.7005 26.9857 70.8438 26.6992C70.9935 26.4128 71.0977 26.0775 71.1562 25.6934C71.2148 25.3027 71.2441 24.8796 71.2441 24.4238Z" fill="white"/>
<path d="M76.2363 30V15.1953H77.4863V30H76.2363ZM80.3242 17.4707C80.0833 17.4707 79.875 17.3861 79.6992 17.2168C79.5234 17.0475 79.4355 16.8327 79.4355 16.5723C79.4355 16.3184 79.5234 16.11 79.6992 15.9473C79.875 15.778 80.0833 15.6934 80.3242 15.6934C80.4479 15.6934 80.5651 15.7161 80.6758 15.7617C80.7865 15.8008 80.8809 15.8594 80.959 15.9375C81.0436 16.0156 81.1087 16.11 81.1543 16.2207C81.2064 16.3249 81.2324 16.4421 81.2324 16.5723C81.2324 16.696 81.2096 16.8132 81.1641 16.9238C81.1185 17.0345 81.0534 17.1322 80.9688 17.2168C80.8841 17.2949 80.7865 17.3568 80.6758 17.4023C80.5716 17.4479 80.4544 17.4707 80.3242 17.4707ZM79.709 30V20H80.959V30H79.709ZM89.9297 30V24.2383C89.9297 21.9792 89.1094 20.8496 87.4688 20.8496C87.0326 20.8496 86.6289 20.9375 86.2578 21.1133C85.8867 21.2826 85.5645 21.5202 85.291 21.8262C85.0241 22.1322 84.8125 22.4967 84.6562 22.9199C84.5065 23.3366 84.4316 23.7891 84.4316 24.2773V30H83.1816V20H84.4316V21.7383H84.4707C85.2129 20.4232 86.3294 19.7656 87.8203 19.7656C88.9141 19.7656 89.7474 20.1204 90.3203 20.8301C90.8932 21.5397 91.1797 22.5651 91.1797 23.9062V30H89.9297ZM99.0859 30L94.4863 25.127H94.4473V30H93.1973V15.1953H94.4473V24.6582H94.4863L98.8516 20H100.482L95.7949 24.834L100.854 30H99.0859Z" fill="#1666C5"/>
<path fill-rule="evenodd" clip-rule="evenodd" d="M15.0618 12.9527V18.4631C15.0618 18.7938 14.7935 19.0621 14.4629 19.0621H8.95247C8.62185 19.0621 8.35352 18.7938 8.35352 18.4631V12.9527C8.35352 12.6221 8.62185 12.3538 8.95247 12.3538H14.4629C14.7935 12.3538 15.0618 12.6221 15.0618 12.9527Z" fill="#1666C5"/>
<path fill-rule="evenodd" clip-rule="evenodd" d="M15.0618 12.9527V18.4631C15.0618 18.7938 14.7935 19.0621 14.4629 19.0621H8.95247C8.62185 19.0621 8.35352 18.7938 8.35352 18.4631V12.9527C8.35352 12.6221 8.62185 12.3538 8.95247 12.3538H14.4629C14.7935 12.3538 15.0618 12.6221 15.0618 12.9527ZM10.7493 14.7496H11.6358V15.2364H11.6564C11.8318 15.0088 12.1955 14.7199 12.7858 14.7199C13.6842 14.7199 14.1035 15.1368 14.1035 16.1871V18.1038H13.1452V16.5465C13.1452 15.8579 12.988 15.648 12.4897 15.648C11.9473 15.648 11.7077 16.0673 11.7077 16.6663V18.1038H10.7493V14.7496ZM9.31185 18.1038H10.2702V14.7496H9.31185V18.1038ZM10.4307 13.7913C10.4307 14.1444 10.1442 14.4309 9.79102 14.4309C9.43787 14.4309 9.15133 14.1444 9.15133 13.7913C9.15133 13.4381 9.43787 13.1516 9.79102 13.1516C10.1442 13.1516 10.4307 13.4381 10.4307 13.7913Z" fill="white"/>
<path d="M14.3636 12.4934H9.05226C8.74348 12.4934 8.49316 12.7437 8.49316 13.0525V18.3639C8.49316 18.6726 8.74348 18.923 9.05226 18.923H14.3636C14.6724 18.923 14.9227 18.6726 14.9227 18.3639V13.0525C14.9227 12.7437 14.6724 12.4934 14.3636 12.4934Z" fill="#1666C5"/>
<path fill-rule="evenodd" clip-rule="evenodd" d="M8.35352 12.9142C8.35352 12.6047 8.60428 12.3538 8.91399 12.3538H14.5021C14.8117 12.3538 15.0626 12.6045 15.0626 12.9142V18.5024C15.0626 18.8119 14.8119 19.0629 14.5021 19.0629H8.91399C8.60445 19.0629 8.35352 18.8121 8.35352 18.5024V12.9142ZM11.0092 14.9116H11.9177V15.3681C12.0487 15.1056 12.3843 14.8697 12.8884 14.8697C13.8548 14.8697 14.0842 15.3921 14.0842 16.3508V18.1264H13.1058V16.5692C13.1058 16.0232 12.9748 15.7153 12.6417 15.7153C12.1798 15.7153 11.9876 16.0473 11.9876 16.5692V18.1264H11.0092V14.9116ZM9.33193 18.0844H10.3103V14.8697H9.33193V18.0844ZM10.4501 13.8214C10.4501 14.1687 10.1685 14.4504 9.82113 14.4504C9.4738 14.4504 9.19215 14.1687 9.19215 13.8214C9.19215 13.474 9.4738 13.1924 9.82113 13.1924C10.1685 13.1924 10.4501 13.474 10.4501 13.8214Z" fill="white"/>
<path fill-rule="evenodd" clip-rule="evenodd" d="M17.6872 12.3538H9.11204C8.70235 12.3538 8.35352 12.6782 8.35352 13.0778V21.6918C8.35352 22.0919 8.58256 22.4163 8.99224 22.4163H17.5674C17.9781 22.4163 18.416 22.0919 18.416 21.6918V13.0778C18.416 12.6782 18.0978 12.3538 17.6872 12.3538Z" fill="#1666C5"/>
<path fill-rule="evenodd" clip-rule="evenodd" d="M17.6872 12.3538H9.11204C8.70235 12.3538 8.35352 12.6782 8.35352 13.0778V21.6918C8.35352 22.0919 8.58256 22.4163 8.99224 22.4163H17.5674C17.9781 22.4163 18.416 22.0919 18.416 21.6918V13.0778C18.416 12.6782 18.0978 12.3538 17.6872 12.3538ZM12.1868 16.1871H13.5415V16.8776H13.5563C13.7628 16.5053 14.3728 16.1272 15.127 16.1272C16.5746 16.1272 16.9785 16.8958 16.9785 18.3194V20.9788H15.541V18.5815C15.541 17.9442 15.2866 17.385 14.6915 17.385C13.9689 17.385 13.6243 17.8742 13.6243 18.6773V20.9788H12.1868V16.1871ZM9.79102 20.9788H11.2285V16.1871H9.79102V20.9788ZM11.4082 14.51C11.4082 15.0064 11.0062 15.4084 10.5098 15.4084C10.0133 15.4084 9.61133 15.0064 9.61133 14.51C9.61133 14.0136 10.0133 13.6116 10.5098 13.6116C11.0062 13.6116 11.4082 14.0136 11.4082 14.51Z" fill="white"/>
<path d="M17.3682 12.5632H9.40202C8.9389 12.5632 8.56348 12.9387 8.56348 13.4018V21.3679C8.56348 21.831 8.9389 22.2065 9.40202 22.2065H17.3682C17.8313 22.2065 18.2067 21.831 18.2067 21.3679V13.4018C18.2067 12.9387 17.8313 12.5632 17.3682 12.5632Z" fill="#1666C5"/>
<path fill-rule="evenodd" clip-rule="evenodd" d="M8.35352 13.1944C8.35352 12.7301 8.72961 12.3538 9.19413 12.3538H17.5754C18.0397 12.3538 18.416 12.7299 18.416 13.1944V21.5756C18.416 22.0399 18.0399 22.4163 17.5754 22.4163H9.19413C8.72987 22.4163 8.35352 22.0402 8.35352 21.5756V13.1944ZM12.3366 16.1901H13.6992V16.8748C13.8956 16.4811 14.399 16.1272 15.1551 16.1272C16.6046 16.1272 16.9486 16.9108 16.9486 18.3487V21.0117H15.4811V18.6762C15.4811 17.8573 15.2847 17.3955 14.7851 17.3955C14.0923 17.3955 13.804 17.8934 13.804 18.6762V21.0117H12.3366V16.1901ZM9.82096 20.9488H11.2884V16.1272H9.82096V20.9488ZM11.498 14.5549C11.498 15.0759 11.0756 15.4983 10.5547 15.4983C10.0337 15.4983 9.61133 15.0759 9.61133 14.5549C9.61133 14.034 10.0337 13.6116 10.5547 13.6116C11.0756 13.6116 11.498 14.034 11.498 14.5549Z" fill="white"/>
<path fill-rule="evenodd" clip-rule="evenodd" d="M20.5124 12.3538H9.61133C8.91654 12.3538 8.35352 12.9168 8.35352 13.6116V24.5126C8.35352 25.2074 8.91654 25.7704 9.61133 25.7704H20.5124C21.2072 25.7704 21.7702 25.2074 21.7702 24.5126V13.6116C21.7702 12.9168 21.2072 12.3538 20.5124 12.3538Z" fill="#1666C5"/>
<path fill-rule="evenodd" clip-rule="evenodd" d="M20.5124 12.3538H9.61133C8.91654 12.3538 8.35352 12.9168 8.35352 13.6116V24.5126C8.35352 25.2074 8.91654 25.7704 9.61133 25.7704H20.5124C21.2072 25.7704 21.7702 25.2074 21.7702 24.5126V13.6116C21.7702 12.9168 21.2072 12.3538 20.5124 12.3538ZM15.481 18.1157V17.1454H13.6242V23.8538H15.5409V20.6793C15.5409 19.8302 15.8586 19.0022 16.8107 19.0022C17.6813 19.0022 17.9367 19.5245 17.9367 20.4397V23.8538H19.8534V19.5293C19.8534 17.984 19.035 17.0855 17.4642 17.0855C16.4623 17.0855 15.756 17.6366 15.481 18.1157ZM10.2702 23.8538H12.1868V17.1454H10.2702V23.8538ZM11.2285 14.1099C10.6104 14.1099 10.1097 14.6106 10.1097 15.2288C10.1097 15.8469 10.6104 16.3476 11.2285 16.3476C11.8466 16.3476 12.3474 15.8469 12.3474 15.2288C12.3474 14.6106 11.8466 14.1099 11.2285 14.1099Z" fill="white"/>
<path d="M20.3717 12.6333H9.7508C9.13335 12.6333 8.63281 13.1338 8.63281 13.7513V24.3722C8.63281 24.9897 9.13335 25.4902 9.7508 25.4902H20.3717C20.9892 25.4902 21.4897 24.9897 21.4897 24.3722V13.7513C21.4897 13.1338 20.9892 12.6333 20.3717 12.6333Z" fill="#1666C5"/>
<path fill-rule="evenodd" clip-rule="evenodd" d="M8.35352 13.4745C8.35352 12.8555 8.85495 12.3538 9.47427 12.3538H20.6487C21.2676 12.3538 21.7694 12.8552 21.7694 13.4745V24.6489C21.7694 25.2679 21.268 25.7697 20.6487 25.7697H9.47427C8.8553 25.7697 8.35352 25.2682 8.35352 24.6489V13.4745ZM13.664 17.4686H15.4807V18.3814C15.7426 17.8565 16.4137 17.3847 17.4218 17.3847C19.3543 17.3847 19.8129 18.4295 19.8129 20.3466V23.897H17.8564V20.7831C17.8564 19.6914 17.5946 19.0757 16.9285 19.0757C16.0048 19.0757 15.6205 19.7395 15.6205 20.7831V23.897H13.664V17.4686ZM10.31 23.8132H12.2665V17.3847H10.31V23.8132ZM12.546 15.2885C12.546 15.983 11.9828 16.5462 11.2882 16.5462C10.5937 16.5462 10.0305 15.983 10.0305 15.2885C10.0305 14.5939 10.5937 14.0307 11.2882 14.0307C11.9828 14.0307 12.546 14.5939 12.546 15.2885Z" fill="white"/>
<path fill-rule="evenodd" clip-rule="evenodd" d="M9.69518 28.6454H23.3035C24.0443 28.6454 24.6452 28.0446 24.6452 27.3038V13.6954C24.6452 12.9546 24.0443 12.3538 23.3035 12.3538H9.69518C8.95439 12.3538 8.35352 12.9546 8.35352 13.6954V27.3038C8.35352 28.0446 8.95439 28.6454 9.69518 28.6454Z" fill="#1666C5"/>
<path fill-rule="evenodd" clip-rule="evenodd" d="M9.69518 28.6454H23.3035C24.0443 28.6454 24.6452 28.0446 24.6452 27.3038V13.6954C24.6452 12.9546 24.0443 12.3538 23.3035 12.3538H9.69518C8.95439 12.3538 8.35352 12.9546 8.35352 13.6954V27.3038C8.35352 28.0446 8.95439 28.6454 9.69518 28.6454ZM14.5827 18.5829H16.8587V19.7286C17.164 19.1167 18.0528 18.4631 19.2282 18.4631C21.4812 18.4631 22.2493 19.4814 22.2493 21.8997V26.2496H19.8535V22.4086C19.8535 21.1359 19.6048 20.4397 18.6757 20.4397C17.4198 20.4397 16.9785 21.3942 16.9785 22.4086V26.2496H14.5827V18.5829ZM10.7493 26.2496H13.1452V18.5829H10.7493V26.2496ZM13.4087 15.9475C13.4087 16.7544 12.7542 17.409 11.9473 17.409C11.1403 17.409 10.4858 16.7544 10.4858 15.9475C10.4858 15.1401 11.1403 14.4861 11.9473 14.4861C12.7542 14.4861 13.4087 15.1401 13.4087 15.9475Z" fill="white"/>
<path d="M22.9474 12.6931H10.0504C9.30068 12.6931 8.69287 13.3009 8.69287 14.0507V26.9477C8.69287 27.6974 9.30068 28.3052 10.0504 28.3052H22.9474C23.6972 28.3052 24.305 27.6974 24.305 26.9477V14.0507C24.305 13.3009 23.6972 12.6931 22.9474 12.6931Z" fill="#1666C5"/>
<path fill-rule="evenodd" clip-rule="evenodd" d="M8.35352 13.7147C8.35352 12.9631 8.96241 12.3538 9.71445 12.3538H23.2835C24.0351 12.3538 24.6444 12.9627 24.6444 13.7147V27.2837C24.6444 28.0354 24.0355 28.6447 23.2835 28.6447H9.71445C8.96283 28.6447 8.35352 28.0358 8.35352 27.2837V13.7147ZM14.802 18.5647H17.0081V19.6731C17.3261 19.0357 18.141 18.4628 19.3651 18.4628C21.7117 18.4628 22.2687 19.7315 22.2687 22.0594V26.3707H19.8929V22.5895C19.8929 21.2639 19.5749 20.5162 18.7661 20.5162C17.6444 20.5162 17.1778 21.3222 17.1778 22.5895V26.3707H14.802V18.5647ZM10.7293 26.2689H13.105V18.4628H10.7293V26.2689ZM13.4444 15.9174C13.4444 16.7608 12.7605 17.4447 11.9172 17.4447C11.0738 17.4447 10.3899 16.7608 10.3899 15.9174C10.3899 15.074 11.0738 14.3901 11.9172 14.3901C12.7605 14.3901 13.4444 15.074 13.4444 15.9174Z" fill="white"/>
<path fill-rule="evenodd" clip-rule="evenodd" d="M27.5202 14.0308V29.8433C27.5202 30.7701 26.7698 31.5204 25.8431 31.5204H10.0306C9.10389 31.5204 8.35352 30.7701 8.35352 29.8433V14.0308C8.35352 13.1041 9.10389 12.3538 10.0306 12.3538H25.8431C26.7698 12.3538 27.5202 13.1041 27.5202 14.0308Z" fill="#1666C5"/>
<path fill-rule="evenodd" clip-rule="evenodd" d="M27.5202 14.0308V29.8433C27.5202 30.7701 26.7698 31.5204 25.8431 31.5204H10.0306C9.10389 31.5204 8.35352 30.7701 8.35352 29.8433V14.0308C8.35352 13.1041 9.10389 12.3538 10.0306 12.3538H25.8431C26.7698 12.3538 27.5202 13.1041 27.5202 14.0308ZM15.541 19.5413H18.3561V21.1383C18.6757 20.5696 19.3743 19.3975 21.2704 19.3975C24.2317 19.3975 24.6452 21.3046 24.6452 23.838V28.6454H21.7702V24.3416C21.7702 22.9831 21.5507 21.8772 20.2953 21.8772C18.7754 21.8772 18.416 22.8743 18.416 24.101V28.6454H15.541V19.5413ZM11.2285 28.6454H14.1035V19.5413H11.2285V28.6454ZM14.4154 16.6662C14.4154 17.6322 13.6325 18.4152 12.6665 18.4152C11.7 18.4152 10.917 17.6322 10.917 16.6662C10.917 15.7002 11.7 14.9173 12.6665 14.9173C13.6325 14.9173 14.4154 15.7002 14.4154 16.6662Z" fill="white"/>
<path d="M25.5231 12.7529H10.3501C9.468 12.7529 8.75293 13.468 8.75293 14.3501V29.5231C8.75293 30.4052 9.468 31.1203 10.3501 31.1203H25.5231C26.4052 31.1203 27.1202 30.4052 27.1202 29.5231V14.3501C27.1202 13.468 26.4052 12.7529 25.5231 12.7529Z" fill="#1666C5"/>
<path fill-rule="evenodd" clip-rule="evenodd" d="M8.35352 13.9549C8.35352 13.0706 9.06986 12.3538 9.95462 12.3538H25.9183C26.8026 12.3538 27.5194 13.0701 27.5194 13.9549V29.9186C27.5194 30.8028 26.8031 31.5197 25.9183 31.5197H9.95462C9.07036 31.5197 8.35352 30.8033 8.35352 29.9186V13.9549ZM15.94 19.6608H18.5354V20.9648C18.9095 20.215 19.8682 19.541 21.3085 19.541C24.0692 19.541 24.7244 21.0335 24.7244 23.7722V28.8444H21.9294V24.3959C21.9294 22.8363 21.5552 21.9567 20.6037 21.9567C19.2841 21.9567 18.735 22.905 18.735 24.3959V28.8444H15.94V19.6608ZM11.1485 28.7246H13.9436V19.541H11.1485V28.7246ZM14.3429 16.5463C14.3429 17.5385 13.5383 18.3431 12.5461 18.3431C11.5538 18.3431 10.7493 17.5385 10.7493 16.5463C10.7493 15.5541 11.5538 14.7495 12.5461 14.7495C13.5383 14.7495 14.3429 15.5541 14.3429 16.5463Z" fill="white"/>
<path d="M28.958 12.833H10.7497C9.69113 12.833 8.83301 13.6911 8.83301 14.7497V32.958C8.83301 34.0166 9.69113 34.8747 10.7497 34.8747H28.958C30.0166 34.8747 30.8747 34.0166 30.8747 32.958V14.7497C30.8747 13.6911 30.0166 12.833 28.958 12.833Z" fill="#1666C5"/>
<path fill-rule="evenodd" clip-rule="evenodd" d="M8 13.9214C8 12.8602 8.85965 12 9.92141 12H29.0786C30.1398 12 31 12.8597 31 13.9214V33.0786C31 34.1398 30.1404 35 29.0786 35H9.92141C8.86024 35 8 34.1404 8 33.0786V13.9214ZM9.76923 31.8154V31.8085L10.1315 31.8081L10.5201 31.7828L10.9189 31.7354L11.312 31.6643L11.7154 31.5616L12.2462 31.3704L12.7298 31.1241L13.1598 30.8258L13.6059 30.4L13.9343 29.9671L14.2729 29.3256L14.5052 28.6308L14.6413 27.9231L14.7083 26.8615V20.625H11.3542L11.3542 24.3846L11.3499 25.2692L11.2878 26.1538L11.2462 26.5211L11.1846 26.8615L11.1089 27.1259L11.0125 27.37L10.9163 27.5512L10.8101 27.7069L10.6878 27.8481L10.5239 27.9937L10.3358 28.1188L10.2302 28.1746L10.1231 28.2227L9.97717 28.2769L9.82767 28.3211L9.66149 28.359L9.50195 28.3861L9.19546 28.4175L8.88462 28.427L9.50398 30.9308L9.6366 31.3731L9.76923 31.8154ZM15.1875 17.0313C15.1875 18.222 14.222 19.1875 13.0312 19.1875C11.8405 19.1875 10.875 18.222 10.875 17.0313C10.875 15.8405 11.8405 14.875 13.0312 14.875C14.222 14.875 15.1875 15.8405 15.1875 17.0313Z" fill="white"/>
<rect x="18.4268" y="26.72" width="8.89333" height="1.22667" rx="0.613333" fill="#1666C5"/>
</svg>
