<svg width="75" height="75" viewBox="0 0 75 75" fill="none" xmlns="http://www.w3.org/2000/svg">
<path fill-rule="evenodd" clip-rule="evenodd" d="M23.0288 3.10693V21.0757C23.0288 22.1538 22.1538 23.0288 21.0757 23.0288H3.10693C2.02881 23.0288 1.15381 22.1538 1.15381 21.0757V3.10693C1.15381 2.02881 2.02881 1.15381 3.10693 1.15381H21.0757C22.1538 1.15381 23.0288 2.02881 23.0288 3.10693Z" fill="#E3E5E8"/>
<path fill-rule="evenodd" clip-rule="evenodd" d="M23.0288 3.10693V21.0757C23.0288 22.1538 22.1538 23.0288 21.0757 23.0288H3.10693C2.02881 23.0288 1.15381 22.1538 1.15381 21.0757V3.10693C1.15381 2.02881 2.02881 1.15381 3.10693 1.15381H21.0757C22.1538 1.15381 23.0288 2.02881 23.0288 3.10693ZM8.96631 8.96631H11.8569V10.5538H11.9241C12.496 9.81162 13.6819 8.86943 15.6069 8.86943C18.5366 8.86943 19.9038 10.2288 19.9038 13.6538V19.9038H16.7788V14.8257C16.7788 12.5804 16.2663 11.896 14.6413 11.896C12.8726 11.896 12.0913 13.2632 12.0913 15.2163V19.9038H8.96631V8.96631ZM4.27881 19.9038H7.40381V8.96631H4.27881V19.9038ZM7.92725 5.84131C7.92725 6.99287 6.99287 7.92725 5.84131 7.92725C4.68975 7.92725 3.75537 6.99287 3.75537 5.84131C3.75537 4.68975 4.68975 3.75537 5.84131 3.75537C6.99287 3.75537 7.92725 4.68975 7.92725 5.84131Z" fill="#1666C5"/>
<path d="M20.7527 1.60962H3.43299C2.4261 1.60962 1.60986 2.42586 1.60986 3.43274V20.7524C1.60986 21.7593 2.4261 22.5756 3.43299 22.5756H20.7527C21.7596 22.5756 22.5758 21.7593 22.5758 20.7524V3.43274C22.5758 2.42586 21.7596 1.60962 20.7527 1.60962Z" fill="#E3E5E8"/>
<path fill-rule="evenodd" clip-rule="evenodd" d="M1.15381 2.98144C1.15381 1.97207 1.9715 1.15381 2.98144 1.15381H21.2037C22.213 1.15381 23.0313 1.9715 23.0313 2.98144V21.2037C23.0313 22.213 22.2136 23.0313 21.2037 23.0313H2.98144C1.97207 23.0313 1.15381 22.2136 1.15381 21.2037V2.98144ZM9.81365 9.4946H12.7762V10.9832C13.2033 10.1272 14.2976 9.35787 15.9416 9.35787C19.0929 9.35787 19.8408 11.0616 19.8408 14.1878V19.9776H16.6504V14.8997C16.6504 13.1194 16.2233 12.1153 15.1372 12.1153C13.6308 12.1153 13.0041 13.1978 13.0041 14.8997V19.9776H9.81365V9.4946ZM4.34428 19.8408H7.53475V9.35787H4.34428V19.8408ZM7.99053 5.93951C7.99053 7.07213 7.07213 7.99053 5.93951 7.99053C4.80689 7.99053 3.8885 7.07213 3.8885 5.93951C3.8885 4.8069 4.80689 3.8885 5.93951 3.8885C7.07213 3.8885 7.99053 4.8069 7.99053 5.93951Z" fill="#1666C5"/>
<path fill-rule="evenodd" clip-rule="evenodd" d="M31.5897 1.15381H3.62725C2.29131 1.15381 1.15381 2.21162 1.15381 3.51475V31.6038C1.15381 32.9085 1.90068 33.9663 3.23662 33.9663H31.1991C32.5382 33.9663 33.9663 32.9085 33.9663 31.6038V3.51475C33.9663 2.21162 32.9288 1.15381 31.5897 1.15381Z" fill="#E3E5E8"/>
<path fill-rule="evenodd" clip-rule="evenodd" d="M31.5897 1.15381H3.62725C2.29131 1.15381 1.15381 2.21162 1.15381 3.51475V31.6038C1.15381 32.9085 1.90068 33.9663 3.23662 33.9663H31.1991C32.5382 33.9663 33.9663 32.9085 33.9663 31.6038V3.51475C33.9663 2.21162 32.9288 1.15381 31.5897 1.15381ZM13.6538 13.6538H18.071V15.9054H18.1194C18.7929 14.6913 20.7819 13.4585 23.2413 13.4585C27.9616 13.4585 29.2788 15.9647 29.2788 20.6069V29.2788H24.5913V21.4616C24.5913 19.3835 23.7616 17.5601 21.821 17.5601C19.4647 17.5601 18.3413 19.1554 18.3413 21.7741V29.2788H13.6538V13.6538ZM5.84131 29.2788H10.5288V13.6538H5.84131V29.2788ZM11.1147 8.18506C11.1147 9.80381 9.80381 11.1147 8.18506 11.1147C6.56631 11.1147 5.25537 9.80381 5.25537 8.18506C5.25537 6.56631 6.56631 5.25537 8.18506 5.25537C9.80381 5.25537 11.1147 6.56631 11.1147 8.18506Z" fill="#1666C5"/>
<path d="M30.5483 1.8374H4.57178C3.06162 1.8374 1.8374 3.06162 1.8374 4.57178V30.5483C1.8374 32.0585 3.06162 33.2827 4.57178 33.2827H30.5483C32.0585 33.2827 33.2827 32.0585 33.2827 30.5483V4.57178C33.2827 3.06162 32.0585 1.8374 30.5483 1.8374Z" fill="#E3E5E8"/>
<path fill-rule="evenodd" clip-rule="evenodd" d="M1.15381 3.89495C1.15381 2.38106 2.38021 1.15381 3.89495 1.15381H31.2252C32.7391 1.15381 33.9663 2.38021 33.9663 3.89495V31.2252C33.9663 32.7391 32.7399 33.9663 31.2252 33.9663H3.89495C2.38106 33.9663 1.15381 32.7399 1.15381 31.2252V3.89495ZM14.1421 13.6636H18.5854V15.8962C19.226 14.6124 20.8673 13.4585 23.333 13.4585C28.0594 13.4585 29.1811 16.0138 29.1811 20.7025V29.3862H24.396V21.7703C24.396 19.1002 23.7555 17.5942 22.1265 17.5942C19.8672 17.5942 18.9272 19.2178 18.9272 21.7703V29.3862H14.1421V13.6636ZM5.93896 29.1812H10.7241V13.4585H5.93896V29.1812ZM11.4077 8.33154C11.4077 10.0303 10.0303 11.4077 8.33154 11.4077C6.63281 11.4077 5.25537 10.0303 5.25537 8.33154C5.25537 6.63281 6.63281 5.25537 8.33154 5.25537C10.0303 5.25537 11.4077 6.63281 11.4077 8.33154Z" fill="#1666C5"/>
<path fill-rule="evenodd" clip-rule="evenodd" d="M40.8022 1.15381H5.25537C2.98975 1.15381 1.15381 2.98975 1.15381 5.25537V40.8022C1.15381 43.0679 2.98975 44.9038 5.25537 44.9038H40.8022C43.0679 44.9038 44.9038 43.0679 44.9038 40.8022V5.25537C44.9038 2.98975 43.0679 1.15381 40.8022 1.15381Z" fill="#E3E5E8"/>
<path fill-rule="evenodd" clip-rule="evenodd" d="M40.8022 1.15381H5.25537C2.98975 1.15381 1.15381 2.98975 1.15381 5.25537V40.8022C1.15381 43.0679 2.98975 44.9038 5.25537 44.9038H40.8022C43.0679 44.9038 44.9038 43.0679 44.9038 40.8022V5.25537C44.9038 2.98975 43.0679 1.15381 40.8022 1.15381ZM24.3955 19.9429V16.7788H18.3408V38.6538H24.5908V28.3022C24.5908 25.5335 25.6268 22.8335 28.7315 22.8335C31.5705 22.8335 32.4033 24.5366 32.4033 27.521V38.6538H38.6533V24.5522C38.6533 19.5132 35.9846 16.5835 30.8627 16.5835C27.5955 16.5835 25.2924 18.3804 24.3955 19.9429ZM7.40381 38.6538H13.6538V16.7788H7.40381V38.6538ZM10.5288 6.88037C8.51318 6.88037 6.88037 8.51318 6.88037 10.5288C6.88037 12.5444 8.51318 14.1772 10.5288 14.1772C12.5444 14.1772 14.1772 12.5444 14.1772 10.5288C14.1772 8.51318 12.5444 6.88037 10.5288 6.88037Z" fill="#1666C5"/>
<path d="M40.344 2.06519H5.71057C3.69714 2.06519 2.06494 3.69739 2.06494 5.71081V40.3442C2.06494 42.3577 3.69714 43.9899 5.71057 43.9899H40.344C42.3574 43.9899 43.9896 42.3577 43.9896 40.3442V5.71081C43.9896 3.69739 42.3574 2.06519 40.344 2.06519Z" fill="#E3E5E8"/>
<path fill-rule="evenodd" clip-rule="evenodd" d="M1.15381 4.80845C1.15381 2.79005 2.78892 1.15381 4.80845 1.15381H41.2467C43.2651 1.15381 44.9013 2.78892 44.9013 4.80845V41.2467C44.9013 43.2651 43.2662 44.9013 41.2467 44.9013H4.80845C2.79005 44.9013 1.15381 43.2662 1.15381 41.2467V4.80845ZM18.4705 17.8325H24.3947V20.8092C25.2487 19.0976 27.4369 17.5591 30.7244 17.5591C37.0258 17.5591 38.5215 20.966 38.5215 27.2173V38.7949H32.1416V28.6409C32.1416 25.081 31.2876 23.0731 29.1158 23.0731C26.1036 23.0731 24.8504 25.2377 24.8504 28.6409V38.7949H18.4705V17.8325ZM7.53365 38.5215H13.9135V17.5591H7.53365V38.5215ZM14.8249 10.7236C14.8249 12.9884 12.9884 14.8249 10.7236 14.8249C8.45873 14.8249 6.62225 12.9884 6.62225 10.7236C6.62225 8.45873 8.45873 6.62225 10.7236 6.62225C12.9884 6.62225 14.8249 8.45873 14.8249 10.7236Z" fill="#1666C5"/>
<path fill-rule="evenodd" clip-rule="evenodd" d="M5.52881 54.2788H49.9038C52.3194 54.2788 54.2788 52.3194 54.2788 49.9038V5.52881C54.2788 3.11318 52.3194 1.15381 49.9038 1.15381H5.52881C3.11318 1.15381 1.15381 3.11318 1.15381 5.52881V49.9038C1.15381 52.3194 3.11318 54.2788 5.52881 54.2788Z" fill="#E3E5E8"/>
<path fill-rule="evenodd" clip-rule="evenodd" d="M5.52881 54.2788H49.9038C52.3194 54.2788 54.2788 52.3194 54.2788 49.9038V5.52881C54.2788 3.11318 52.3194 1.15381 49.9038 1.15381H5.52881C3.11318 1.15381 1.15381 3.11318 1.15381 5.52881V49.9038C1.15381 52.3194 3.11318 54.2788 5.52881 54.2788ZM21.4663 21.4663H28.8882V25.2022C29.8835 23.2069 32.7819 21.0757 36.6147 21.0757C43.9616 21.0757 46.4663 24.396 46.4663 32.2819V46.4663H38.6538V33.9413C38.6538 29.7913 37.8429 27.521 34.8132 27.521C30.7179 27.521 29.2788 30.6335 29.2788 33.9413V46.4663H21.4663V21.4663ZM8.96631 46.4663H16.7788V21.4663H8.96631V46.4663ZM17.6382 12.8726C17.6382 15.5038 15.5038 17.6382 12.8726 17.6382C10.2413 17.6382 8.10693 15.5038 8.10693 12.8726C8.10693 10.2397 10.2413 8.10693 12.8726 8.10693C15.5038 8.10693 17.6382 10.2397 17.6382 12.8726Z" fill="#1666C5"/>
<path d="M48.7424 2.2605H6.68713C4.24223 2.2605 2.26025 4.24248 2.26025 6.68737V48.7427C2.26025 51.1876 4.24223 53.1696 6.68713 53.1696H48.7424C51.1873 53.1696 53.1693 51.1876 53.1693 48.7427V6.68737C53.1693 4.24248 51.1873 2.2605 48.7424 2.2605Z" fill="#E3E5E8"/>
<path fill-rule="evenodd" clip-rule="evenodd" d="M1.15381 5.59163C1.15381 3.14069 3.13932 1.15381 5.59163 1.15381H49.8385C52.2894 1.15381 54.2763 3.13932 54.2763 5.59163V49.8385C54.2763 52.2894 52.2908 54.2763 49.8385 54.2763H5.59163C3.14069 54.2763 1.15381 52.2908 1.15381 49.8385V5.59163ZM22.1815 21.4068H29.3751V25.0213C30.4121 22.9429 33.0694 21.0747 37.0613 21.0747C44.7132 21.0747 46.5293 25.2117 46.5293 32.8026V46.8613H38.7822V34.5313C38.7822 30.2085 37.7453 27.7704 35.1079 27.7704C31.4502 27.7704 29.9285 30.3989 29.9285 34.5313V46.8613H22.1815V21.4068ZM8.90084 46.5293H16.6479V21.0747H8.90084V46.5293ZM17.7546 12.7744C17.7546 15.5246 15.5246 17.7546 12.7744 17.7546C10.0242 17.7546 7.79412 15.5246 7.79412 12.7744C7.79412 10.0242 10.0242 7.79412 12.7744 7.79412C15.5246 7.79412 17.7546 10.0242 17.7546 12.7744Z" fill="#1666C5"/>
<path fill-rule="evenodd" clip-rule="evenodd" d="M63.6538 6.62256V58.185C63.6538 61.2069 61.2069 63.6538 58.185 63.6538H6.62256C3.60068 63.6538 1.15381 61.2069 1.15381 58.185V6.62256C1.15381 3.60068 3.60068 1.15381 6.62256 1.15381H58.185C61.2069 1.15381 63.6538 3.60068 63.6538 6.62256Z" fill="#E3E5E8"/>
<path fill-rule="evenodd" clip-rule="evenodd" d="M63.6538 6.62256V58.185C63.6538 61.2069 61.2069 63.6538 58.185 63.6538H6.62256C3.60068 63.6538 1.15381 61.2069 1.15381 58.185V6.62256C1.15381 3.60068 3.60068 1.15381 6.62256 1.15381H58.185C61.2069 1.15381 63.6538 3.60068 63.6538 6.62256ZM24.5913 24.5913H33.771V29.7991C34.8132 27.9444 37.0913 24.1226 43.2741 24.1226C52.9304 24.1226 54.2788 30.3413 54.2788 38.6023V54.2788H44.9038V40.2444C44.9038 35.8148 44.1882 32.2085 40.0944 32.2085C35.1382 32.2085 33.9663 35.4601 33.9663 39.4601V54.2788H24.5913V24.5913ZM10.5288 54.2788H19.9038V24.5913H10.5288V54.2788ZM20.921 15.2163C20.921 18.3663 18.3678 20.9194 15.2178 20.9194C12.0663 20.9194 9.51314 18.3663 9.51314 15.2163C9.51314 12.0663 12.0663 9.51314 15.2178 9.51314C18.3678 9.51314 20.921 12.0663 20.921 15.2163Z" fill="#1666C5"/>
<path d="M57.1409 2.45581H7.66369C4.78732 2.45581 2.45557 4.78757 2.45557 7.66394V57.1411C2.45557 60.0175 4.78732 62.3493 7.66369 62.3493H57.1409C60.0172 62.3493 62.349 60.0175 62.349 57.1411V7.66394C62.349 4.78757 60.0172 2.45581 57.1409 2.45581Z" fill="#E3E5E8"/>
<path fill-rule="evenodd" clip-rule="evenodd" d="M1.15381 6.37482C1.15381 3.49133 3.48972 1.15381 6.37481 1.15381H58.4303C61.3138 1.15381 63.6513 3.48972 63.6513 6.37482V58.4303C63.6513 61.3138 61.3154 63.6513 58.4303 63.6513H6.37481C3.49133 63.6513 1.15381 61.3154 1.15381 58.4303V6.37482ZM25.8924 24.981H34.3556V29.2334C35.5756 26.7882 38.7018 24.5904 43.3982 24.5904C52.4005 24.5904 54.5371 29.4574 54.5371 38.388V54.9277H45.4229V40.4218C45.4229 35.336 44.2029 32.4677 41.1001 32.4677C36.7969 32.4677 35.0066 35.56 35.0066 40.4218V54.9277H25.8924V24.981ZM10.268 54.5371H19.3822V24.5904H10.268V54.5371ZM20.6843 14.8251C20.6843 18.0607 18.0607 20.6843 14.8251 20.6843C11.5896 20.6843 8.966 18.0607 8.966 14.8251C8.966 11.5896 11.5896 8.966 14.8251 8.966C18.0607 8.966 20.6843 11.5896 20.6843 14.8251Z" fill="#1666C5"/>
<path d="M68.3413 2.71631H8.96631C5.51453 2.71631 2.71631 5.51453 2.71631 8.96631V68.3413C2.71631 71.7931 5.51453 74.5913 8.96631 74.5913H68.3413C71.7931 74.5913 74.5913 71.7931 74.5913 68.3413V8.96631C74.5913 5.51453 71.7931 2.71631 68.3413 2.71631Z" fill="#E3E5E8"/>
<path fill-rule="evenodd" clip-rule="evenodd" d="M0 6.26546C0 2.80514 2.80321 0 6.26546 0H68.7345C72.1949 0 75 2.80321 75 6.26546V68.7345C75 72.1949 72.1968 75 68.7345 75H6.26546C2.80514 75 0 72.1968 0 68.7345V6.26546ZM5.76923 64.6154V64.5929L6.95043 64.5916L8.21756 64.509L9.51802 64.3545L10.8 64.1226L12.1154 63.7879L13.8462 63.1644L15.4234 62.3613L16.8256 61.3886L18.2801 60L19.3509 58.5882L20.455 56.4965L21.2127 54.2308L21.6564 51.9231L21.875 48.4615V28.125H10.9375L10.9375 40.3846L10.9235 43.2692L10.7211 46.1538L10.5854 47.3515L10.3846 48.4615L10.1376 49.3237L9.82328 50.1196L9.5097 50.7103L9.1634 51.2182L8.76455 51.6785L8.22999 52.1535L7.6168 52.5613L7.27235 52.7432L6.92308 52.9002L6.44729 53.0769L5.95978 53.221L5.41789 53.3446L4.89768 53.4331L3.89823 53.5353L2.88461 53.5662L4.90428 61.7308L5.33675 63.1731L5.76923 64.6154ZM23.4375 16.4062C23.4375 20.2891 20.2891 23.4375 16.4062 23.4375C12.5234 23.4375 9.375 20.2891 9.375 16.4062C9.375 12.5234 12.5234 9.375 16.4062 9.375C20.2891 9.375 23.4375 12.5234 23.4375 16.4062Z" fill="#1666C5"/>
<rect x="34" y="48" width="29" height="6" rx="3" fill="#E3E5E8"/>
</svg>
